<svg width="138" height="138" viewBox="0 0 138 138" fill="none" xmlns="http://www.w3.org/2000/svg">
<path d="M40.7442 47.6691H35.6079V42.5328C35.6079 41.468 34.9343 40.5195 33.9286 40.1687C32.3619 39.6223 30.7167 39.3451 29.0389 39.3451C27.3611 39.3451 25.716 39.6223 24.1492 40.1687C23.1436 40.5195 22.4699 41.468 22.4699 42.5328V47.6691H17.3342C16.2694 47.6691 15.3212 48.3428 14.9704 49.3481C14.4237 50.9146 14.1465 52.56 14.1465 54.2381C14.1465 55.9162 14.4237 57.5617 14.9704 59.1281C15.3212 60.1335 16.2697 60.8068 17.3342 60.8068H22.4705V65.9431C22.4705 67.0079 23.1442 67.9561 24.1495 68.307C25.716 68.8537 27.3614 69.1309 29.0395 69.1309C30.7176 69.1309 32.363 68.8537 33.9295 68.307C34.9349 67.9561 35.6085 67.0079 35.6085 65.9431V60.8068H40.7448C41.8096 60.8068 42.7581 60.1332 43.1089 59.1278C43.6554 57.5614 43.9325 55.9162 43.9325 54.2381C43.9325 52.5603 43.6554 50.9152 43.1089 49.3484C42.7575 48.3428 41.8093 47.6691 40.7442 47.6691ZM38.8025 55.7993H33.1045C31.7218 55.7993 30.6007 56.9204 30.6007 58.3031V64.0011C29.5753 64.164 28.5034 64.1637 27.478 64.0011V58.3031C27.478 56.9204 26.3569 55.7993 24.9743 55.7993H19.2763C19.195 55.2865 19.154 54.7651 19.154 54.2381C19.154 53.7112 19.195 53.1895 19.2763 52.6766H24.9743C26.3569 52.6766 27.478 51.5555 27.478 50.1729V44.4752C28.5037 44.3123 29.5753 44.3123 30.6007 44.4752V50.1729C30.6007 51.5555 31.7218 52.6766 33.1045 52.6766H38.8022C38.8835 53.1895 38.9244 53.7109 38.9244 54.2381C38.9244 54.7651 38.8835 55.2868 38.8025 55.7993Z" fill="#0077FF"/>
<path d="M74.9151 49.038C74.9177 49.038 74.9206 49.038 74.9233 49.038C77.2786 49.0353 79.1824 47.123 79.1768 44.7677C79.1709 42.415 77.2618 40.5116 74.9065 40.5145C72.5538 40.5201 70.6474 42.4324 70.6533 44.7848C70.6586 47.1372 72.565 49.038 74.9151 49.038Z" fill="#0077FF"/>
<path d="M121.847 52.094C117.414 47.311 110.178 46.7607 105.016 50.8156C103.606 51.9238 101.96 52.8723 100.146 53.6508C98.1535 42.1382 92.9233 31.5746 84.892 22.9145C80.4592 18.1308 73.2242 17.58 68.0605 21.6349C63.7894 24.992 57.3974 26.9176 50.5238 26.9176C43.6484 26.9176 37.2556 24.992 32.9841 21.6346C27.8252 17.5803 20.5898 18.1305 16.1532 22.9142C5.73659 34.1532 0 48.7846 0 64.1133C0 69.857 0.804742 75.5453 2.39243 81.0206C3.553 85.0219 6.6347 88.1375 10.6354 89.3546C11.8266 89.7169 13.0435 89.8945 14.25 89.8945C17.1008 89.8945 19.892 88.9033 22.1389 87.0196C27.0354 82.9111 32.739 79.9328 38.8412 78.262C37.5993 83.1285 36.9554 88.1725 36.9554 93.2955C36.9554 99.0421 37.7598 104.73 39.3463 110.201C40.5069 114.203 43.5886 117.319 47.5905 118.536C48.7812 118.898 49.9971 119.075 51.203 119.075C54.0541 119.075 56.846 118.083 59.092 116.199C67.0248 109.544 77.1059 105.878 87.4777 105.878C97.8495 105.878 107.931 109.544 115.863 116.199C119.059 118.881 123.359 119.754 127.365 118.536C131.366 117.319 134.448 114.204 135.609 110.202C137.195 104.731 138 99.0427 138 93.2958C138 77.9645 132.263 63.3325 121.847 52.094ZM18.3529 82.5057C16.6625 83.9229 14.4745 84.365 12.3504 83.7185C10.2304 83.0737 8.66305 81.4919 8.05037 79.3799C6.61762 74.438 5.89123 69.3014 5.89123 64.1133C5.89123 50.2745 11.0702 37.0652 20.4735 26.9193C22.805 24.405 26.6183 24.1243 29.3439 26.2663C34.6334 30.424 42.3532 32.8085 50.5241 32.8085C58.6929 32.8085 66.4118 30.424 71.7001 26.2672C74.4292 24.1245 78.2417 24.4053 80.5717 26.9193C87.9941 34.9232 92.7639 44.7256 94.4632 55.4026C92.469 55.8088 90.3715 56.0409 88.2194 56.0845C88.4998 55.5139 88.6607 54.8738 88.6583 54.1946C88.6524 51.8422 86.7375 49.9384 84.3822 49.947C82.0298 49.9526 80.129 51.8675 80.1349 54.2228C80.1363 54.6187 80.1958 55.0002 80.298 55.3637C76.2655 54.5165 72.6686 52.9598 69.9389 50.8156C64.7776 46.761 57.5423 47.3107 53.1086 52.094C47.7596 57.8648 43.6484 64.5322 40.9108 71.7277C32.6277 73.3402 24.8601 77.0455 18.3529 82.5057ZM129.951 108.56C129.338 110.673 127.771 112.255 125.651 112.899C123.527 113.545 121.339 113.103 119.65 111.686C110.658 104.142 99.2322 99.9868 87.4777 99.9868C75.7232 99.9868 64.2978 104.142 55.3057 111.686C53.6164 113.103 51.4298 113.545 49.3046 112.899C47.1846 112.255 45.617 110.673 45.0046 108.56C43.5727 103.623 42.8466 98.4866 42.8466 93.2952C42.8466 79.4541 48.0256 66.2442 57.4292 56.0989C58.7102 54.7168 60.4396 54.0105 62.1905 54.0105C63.6238 54.0105 65.0719 54.4841 66.2993 55.4485C71.5902 59.6048 79.3095 61.9887 87.4774 61.9887C95.6453 61.9887 103.365 59.6048 108.655 55.4485C111.383 53.3062 115.196 53.5851 117.526 56.0989C126.929 66.2445 132.108 79.4544 132.108 93.2952C132.109 98.4869 131.383 103.623 129.951 108.56Z" fill="#0077FF"/>
<path d="M77.6983 76.8498H72.562V71.7139C72.562 70.649 71.8884 69.7005 70.883 69.3497C69.3166 68.8033 67.6714 68.5261 65.9933 68.5261C64.3155 68.5261 62.6704 68.8033 61.1036 69.3497C60.098 69.7005 59.4243 70.649 59.4243 71.7139V76.8501H54.2883C53.2235 76.8501 52.2753 77.5238 51.9245 78.5291C51.3778 80.0956 51.1006 81.741 51.1006 83.4192C51.1006 85.0973 51.3778 86.7427 51.9245 88.3092C52.2753 89.3145 53.2235 89.9882 54.2883 89.9882H59.4243V95.1241C59.4243 96.189 60.098 97.1372 61.1033 97.488C62.6701 98.0347 64.3155 98.3119 65.9933 98.3119C67.6714 98.3119 69.3169 98.0347 70.8833 97.488C71.8887 97.1372 72.562 96.1887 72.562 95.1241V89.9882H77.6983C78.7629 89.9882 79.7113 89.3148 80.0622 88.3095C80.6086 86.7433 80.8861 85.0979 80.8861 83.4192C80.8861 81.7404 80.6089 80.095 80.0622 78.5288C79.7113 77.5232 78.7629 76.8498 77.6983 76.8498ZM75.7563 84.9803H70.0583C68.6756 84.9803 67.5545 86.1014 67.5545 87.4841V93.1818C66.5291 93.3447 65.4572 93.3444 64.4319 93.1818V87.4841C64.4319 86.1014 63.3108 84.9803 61.9281 84.9803H56.2304C56.1491 84.4675 56.1081 83.9461 56.1081 83.4189C56.1081 82.8916 56.1491 82.3702 56.2304 81.8574H61.9281C63.3108 81.8574 64.4319 80.7363 64.4319 79.3536V73.6559C65.4575 73.493 66.5291 73.4933 67.5545 73.6559V79.3539C67.5545 80.7366 68.6756 81.8577 70.0583 81.8577H75.7563C75.8376 82.3705 75.8785 82.8919 75.8785 83.4192C75.8785 83.9464 75.8376 84.4675 75.7563 84.9803Z" fill="#0077FF"/>
<path d="M121.351 87.6523C121.354 87.6523 121.36 87.6523 121.363 87.6523C123.718 87.6438 125.619 85.7315 125.613 83.3761C125.605 81.0238 123.693 79.12 121.337 79.1286C118.985 79.1342 117.081 81.0491 117.09 83.4018C117.095 85.7515 119.002 87.6523 121.351 87.6523Z" fill="#0077FF"/>
<path d="M102.424 79.1658C100.071 79.1687 98.1647 81.0778 98.168 83.4331C98.1709 85.7855 100.08 87.6922 102.435 87.6892C104.788 87.6863 106.694 85.7772 106.691 83.4245C106.688 81.0695 104.779 79.1631 102.424 79.1658Z" fill="#0077FF"/>
<path d="M111.913 88.6185C111.887 88.6185 111.864 88.6185 111.839 88.6185C109.509 88.6467 107.628 90.5419 107.628 92.8802C107.628 95.2325 109.537 97.1419 111.89 97.1419C111.895 97.1419 111.901 97.1419 111.904 97.1419C111.912 97.1419 111.921 97.1419 111.929 97.1419C111.935 97.1419 111.941 97.1419 111.946 97.1419C114.299 97.1333 116.2 95.2155 116.191 92.8631C116.18 90.5078 114.265 88.607 111.913 88.6185Z" fill="#0077FF"/>
<path d="M111.87 78.2196C111.873 78.2196 111.876 78.2196 111.879 78.2196C114.234 78.214 116.138 76.302 116.132 73.9494C116.126 71.594 114.214 69.6903 111.862 69.6962C109.507 69.7018 107.603 71.6141 107.608 73.9664C107.611 76.3162 109.521 78.2196 111.87 78.2196Z" fill="#0077FF"/>
</svg>
