<svg width="136" height="136" viewBox="0 0 136 136" fill="none" xmlns="http://www.w3.org/2000/svg">
<path d="M117.513 18.4876C104.338 5.31255 73.9504 -6.79995 45.0504 21.8876C25.9254 40.8 19.1254 64.8126 45.0504 90.7376C70.9754 116.45 94.9879 109.65 114.113 90.7376C143.013 61.8376 130.688 31.6626 117.513 18.4876Z" fill="#0077FF"/>
<path d="M65.4504 104.763L31.0254 70.3375C31.0254 70.3375 38.2504 87.125 25.9254 99.6625C25.9254 99.6625 15.5129 110.075 4.46289 119.638C5.73789 122.188 5.31289 122.4 9.77539 127.075C13.6004 130.9 13.8129 130.475 15.9379 131.75C25.5004 120.488 36.1254 109.863 36.1254 109.863C48.6629 97.5375 65.4504 104.763 65.4504 104.763Z" fill="#0077FF"/>
<path d="M65.4498 104.763L52.6998 92.0126L35.4873 110.5C38.8873 107.1 49.2998 99.2376 65.4498 104.763Z" fill="#0077FF"/>
<path d="M31.0246 70.3375L43.7746 83.0875L25.2871 100.3C28.6871 96.6875 36.5496 86.4875 31.0246 70.3375Z" fill="#0077FF"/>
<path d="M114.962 131.75C124.234 131.75 131.75 124.234 131.75 114.963C131.75 105.691 124.234 98.175 114.962 98.175C105.691 98.175 98.1748 105.691 98.1748 114.963C98.1748 124.234 105.691 131.75 114.962 131.75Z" fill="#0077FF"/>
<path d="M126.65 108.588C125.8 110.288 122.4 110.288 119.212 108.588C116.025 106.888 113.9 104.125 114.75 102.638C115.6 100.938 119 100.938 122.187 102.638C125.587 104.338 127.5 106.888 126.65 108.588Z" fill="#0077FF"/>
</svg>
