<svg width="667" height="666" viewBox="0 0 667 666" fill="none" xmlns="http://www.w3.org/2000/svg">
<mask id="mask0_1679_1155" style="mask-type:luminance" maskUnits="userSpaceOnUse" x="0" y="0" width="667" height="666">
<path d="M0 0H666.667V666H0V0Z" fill="white"/>
</mask>
<g mask="url(#mask0_1679_1155)">
<path d="M110.94 270.98C-11.8837 346.091 -11.8837 467.871 110.94 542.983C233.764 618.096 432.902 618.097 555.726 542.987C678.551 467.875 678.551 346.096 555.726 270.983C432.902 195.872 233.764 195.87 110.94 270.98Z" fill="#F5F5F5"/>
</g>
<path d="M417.211 67.3208L552.612 145.417V207.894L417.211 129.797V67.3208Z" fill="#ECECEC"/>
<path d="M417.211 67.3209L422.627 64.1973L558.028 142.293L552.612 145.417L417.211 67.3209Z" fill="#FAFAFA"/>
<path d="M558.028 142.294V204.771L552.612 207.895V145.417L558.028 142.294Z" fill="#E1E1E1"/>
<path d="M460.539 137.378V118.634L509.284 146.75L509.283 165.492L460.539 137.378Z" fill="#FAFAFA"/>
<mask id="mask1_1679_1155" style="mask-type:luminance" maskUnits="userSpaceOnUse" x="0" y="0" width="667" height="666">
<path d="M0 0H666.667V666H0V0Z" fill="white"/>
</mask>
<g mask="url(#mask1_1679_1155)">
<path d="M473.388 130.377L471.438 129.253C471.277 129.16 471.122 129.133 470.974 129.173L474.362 138.304V132.438C474.362 132.023 474.266 131.616 474.077 131.215C473.886 130.811 473.657 130.533 473.388 130.377ZM471.438 138.244L473.388 139.368C473.545 139.459 473.698 139.485 473.853 139.449L470.465 130.32V136.183C470.465 136.598 470.561 137.007 470.75 137.406C470.941 137.812 471.17 138.088 471.438 138.244ZM473.388 140.867L471.438 139.742C470.902 139.433 470.441 138.874 470.061 138.069C469.681 137.266 469.49 136.45 469.49 135.623V129.629C469.49 128.8 469.681 128.205 470.061 127.838C470.441 127.471 470.902 127.445 471.438 127.754L473.388 128.879C473.925 129.188 474.384 129.747 474.765 130.552C475.145 131.355 475.337 132.173 475.337 133V138.994C475.337 139.821 475.145 140.416 474.765 140.783C474.384 141.15 473.925 141.176 473.388 140.867Z" fill="#E1E1E1"/>
<path d="M481.182 134.873L479.233 133.749C479.072 133.655 478.916 133.629 478.769 133.669L482.157 142.799V136.933C482.157 136.519 482.061 136.112 481.872 135.711C481.681 135.307 481.452 135.029 481.182 134.873ZM479.233 142.74L481.182 143.864C481.34 143.954 481.493 143.981 481.648 143.945L478.26 134.815V140.679C478.26 141.093 478.356 141.502 478.545 141.902C478.736 142.308 478.965 142.584 479.233 142.74ZM481.182 145.362L479.233 144.238C478.697 143.929 478.236 143.37 477.856 142.565C477.476 141.762 477.285 140.945 477.285 140.118V134.124C477.285 133.296 477.476 132.7 477.856 132.334C478.236 131.966 478.697 131.941 479.233 132.25L481.182 133.374C481.72 133.683 482.178 134.243 482.56 135.047C482.94 135.85 483.132 136.668 483.132 137.495V143.489C483.132 144.317 482.94 144.912 482.56 145.278C482.178 145.646 481.72 145.671 481.182 145.362Z" fill="#E1E1E1"/>
<path d="M484.509 146.671C484.509 146.226 484.703 146.029 484.978 146.185C485.25 146.34 485.427 146.756 485.435 147.204C485.435 147.623 485.257 147.844 484.97 147.678C484.697 147.522 484.509 147.089 484.509 146.671ZM484.509 142.438C484.509 141.993 484.703 141.796 484.978 141.951C485.25 142.107 485.427 142.524 485.435 142.972C485.435 143.39 485.257 143.611 484.97 143.445C484.697 143.289 484.509 142.857 484.509 142.438Z" fill="#E1E1E1"/>
<path d="M490.59 146.294L488.642 145.169C488.372 145.014 488.142 145.027 487.952 145.212C487.762 145.393 487.667 145.693 487.667 146.106V147.23C487.667 147.331 487.691 147.433 487.738 147.535C487.787 147.636 487.844 147.707 487.91 147.746L492.059 150.136C492.19 150.214 492.304 150.352 492.4 150.557C492.498 150.761 492.546 150.966 492.546 151.171C492.546 151.379 492.498 151.528 492.4 151.616C492.304 151.704 492.19 151.712 492.059 151.635L487.179 148.822C487.048 148.745 486.934 148.609 486.838 148.409C486.74 148.208 486.692 148.003 486.692 147.792V145.545C486.692 144.717 486.883 144.118 487.263 143.755C487.644 143.387 488.103 143.359 488.642 143.671L490.59 144.795C490.858 144.948 491.09 144.935 491.283 144.754C491.475 144.574 491.571 144.274 491.571 143.861V142.363C491.571 141.949 491.476 141.541 491.286 141.14C491.095 140.737 490.863 140.455 490.59 140.3L488.642 139.175C488.372 139.02 488.142 139.033 487.952 139.218C487.762 139.399 487.667 139.699 487.667 140.112C487.667 140.324 487.62 140.474 487.526 140.562C487.432 140.654 487.318 140.659 487.183 140.583C487.048 140.505 486.934 140.368 486.838 140.166C486.74 139.967 486.692 139.762 486.692 139.551C486.692 138.723 486.883 138.124 487.263 137.761C487.644 137.393 488.103 137.365 488.642 137.677L490.59 138.801C491.132 139.113 491.595 139.672 491.975 140.477C492.355 141.283 492.546 142.098 492.546 142.925V144.424C492.546 145.251 492.355 145.849 491.975 146.212C491.595 146.58 491.132 146.605 490.59 146.294Z" fill="#E1E1E1"/>
<path d="M499.358 152.1C499.358 151.686 499.263 151.278 499.073 150.875C498.882 150.471 498.653 150.193 498.385 150.04L496.437 148.915C496.167 148.76 495.937 148.773 495.746 148.958C495.555 149.139 495.461 149.439 495.461 149.853V150.602C495.461 151.016 495.555 151.424 495.746 151.824C495.937 152.228 496.167 152.506 496.437 152.662L498.385 153.787C498.653 153.94 498.882 153.926 499.073 153.741C499.263 153.563 499.358 153.263 499.358 152.849V152.1ZM499.358 146.855C499.358 146.442 499.263 146.033 499.073 145.631C498.882 145.227 498.653 144.949 498.385 144.796L496.437 143.671C496.167 143.515 495.937 143.527 495.746 143.713C495.555 143.895 495.461 144.193 495.461 144.608V145.358C495.461 145.771 495.555 146.179 495.746 146.579C495.937 146.983 496.167 147.261 496.437 147.417L498.385 148.541C498.653 148.694 498.882 148.682 499.073 148.497C499.263 148.317 499.358 148.019 499.358 147.605V146.855ZM500.331 152.662V153.411C500.331 154.238 500.142 154.835 499.762 155.201C499.382 155.566 498.922 155.594 498.385 155.285L496.437 154.161C495.897 153.848 495.439 153.292 495.057 152.488C494.677 151.682 494.487 150.867 494.487 150.04V149.291C494.487 148.853 494.546 148.473 494.662 148.148C494.778 147.826 494.941 147.583 495.149 147.422C494.941 147.021 494.778 146.592 494.662 146.134C494.546 145.68 494.487 145.232 494.487 144.796V144.046C494.487 143.218 494.677 142.62 495.057 142.255C495.439 141.889 495.897 141.861 496.437 142.173L498.385 143.297C498.922 143.606 499.382 144.163 499.762 144.969C500.142 145.773 500.331 146.59 500.331 147.417V148.167C500.331 148.604 500.273 148.981 500.154 149.303C500.034 149.627 499.874 149.868 499.67 150.032C499.874 150.43 500.034 150.859 500.154 151.317C500.273 151.775 500.331 152.225 500.331 152.662Z" fill="#E1E1E1"/>
<path d="M422.626 78.0239L455.123 96.7678L455.122 134.254L422.627 115.51L422.626 78.0239Z" fill="#FAFAFA"/>
<path d="M434.376 96.5962L431.376 94.866C431.125 94.7221 430.887 94.6795 430.66 94.7408L435.876 108.797V99.7677C435.876 99.131 435.731 98.5037 435.436 97.883C435.143 97.2636 434.791 96.8347 434.376 96.5962ZM431.376 108.706L434.376 110.438C434.619 110.577 434.855 110.619 435.089 110.562L429.876 96.5057V105.535C429.876 106.172 430.021 106.799 430.315 107.42C430.608 108.039 430.961 108.468 431.376 108.706ZM434.376 112.745L431.376 111.014C430.548 110.537 429.84 109.679 429.253 108.44C428.668 107.2 428.376 105.944 428.376 104.669V95.4414C428.376 94.168 428.668 93.2489 429.253 92.6855C429.84 92.1234 430.548 92.0794 431.376 92.5589L434.376 94.2892C435.204 94.7661 435.909 95.6239 436.496 96.8626C437.081 98.1027 437.376 99.3588 437.376 100.632V109.861C437.376 111.135 437.081 112.054 436.496 112.616C435.909 113.181 435.204 113.222 434.376 112.745Z" fill="#E1E1E1"/>
<path d="M446.376 112.744L443.376 111.013C442.961 110.775 442.608 110.796 442.315 111.079C442.021 111.36 441.876 111.819 441.876 112.456V114.186C441.876 114.342 441.912 114.499 441.987 114.656C442.061 114.815 442.149 114.921 442.251 114.979L448.636 118.662C448.84 118.779 449.015 118.995 449.165 119.31C449.313 119.623 449.387 119.939 449.387 120.259C449.387 120.577 449.313 120.805 449.165 120.941C449.015 121.078 448.84 121.087 448.636 120.97L441.125 116.638C440.923 116.521 440.745 116.308 440.597 116C440.449 115.693 440.376 115.377 440.376 115.051V111.591C440.376 110.318 440.668 109.399 441.253 108.835C441.84 108.272 442.548 108.229 443.376 108.708L446.376 110.439C446.789 110.676 447.144 110.656 447.441 110.377C447.739 110.097 447.887 109.64 447.887 109.002V106.695C447.887 106.06 447.74 105.431 447.448 104.81C447.155 104.191 446.797 103.761 446.376 103.515L443.376 101.785C442.961 101.548 442.608 101.568 442.315 101.849C442.021 102.131 441.876 102.591 441.876 103.226C441.876 103.553 441.803 103.783 441.659 103.923C441.515 104.062 441.339 104.071 441.131 103.952C440.924 103.834 440.745 103.619 440.597 103.312C440.449 103.004 440.376 102.687 440.376 102.362C440.376 101.089 440.668 100.171 441.253 99.6072C441.84 99.0438 442.548 99.0012 443.376 99.478L446.376 101.208C447.212 101.691 447.923 102.551 448.509 103.79C449.095 105.03 449.387 106.286 449.387 107.559V109.868C449.387 111.141 449.095 112.059 448.509 112.622C447.923 113.186 447.212 113.226 446.376 112.744Z" fill="#E1E1E1"/>
<mask id="mask2_1679_1155" style="mask-type:luminance" maskUnits="userSpaceOnUse" x="428" y="125" width="22" height="15">
<path d="M428.041 125.506H449.706V139.877H428.041V125.506Z" fill="white"/>
</mask>
<g mask="url(#mask2_1679_1155)">
<g opacity="0.149994">
<path d="M429.485 125.715L448.264 136.545C449.061 137.005 449.708 138.077 449.706 138.939C449.706 139.802 449.061 140.128 448.264 139.669L429.485 128.838C428.688 128.377 428.041 127.306 428.041 126.443C428.041 125.581 428.688 125.255 429.485 125.715Z" fill="#222831"/>
</g>
</g>
<path d="M514.699 131.129L547.197 149.873L547.195 187.36L514.701 168.616L514.699 131.129Z" fill="#FAFAFA"/>
<path d="M526.449 149.702L523.449 147.971C523.199 147.826 522.96 147.785 522.733 147.846L527.949 161.903V152.873C527.949 152.235 527.804 151.609 527.509 150.987C527.216 150.368 526.863 149.939 526.449 149.702ZM523.449 161.812L526.449 163.542C526.692 163.682 526.928 163.724 527.163 163.666L521.949 149.611V158.641C521.949 159.277 522.095 159.905 522.388 160.524C522.681 161.143 523.035 161.572 523.449 161.812ZM526.449 165.849L523.449 164.119C522.621 163.641 521.913 162.785 521.327 161.544C520.741 160.306 520.449 159.05 520.449 157.775V148.547C520.449 147.272 520.741 146.353 521.327 145.791C521.913 145.227 522.621 145.185 523.449 145.664L526.449 147.395C527.277 147.87 527.983 148.729 528.569 149.967C529.155 151.208 529.449 152.464 529.449 153.736V162.967C529.449 164.239 529.155 165.157 528.569 165.722C527.983 166.286 527.277 166.328 526.449 165.849Z" fill="#E1E1E1"/>
<path d="M541.449 168.735V169.887C541.449 171.162 541.155 172.081 540.569 172.643C539.983 173.206 539.277 173.249 538.449 172.772L535.449 171.039C534.621 170.563 533.913 169.706 533.327 168.467C532.741 167.225 532.449 165.969 532.449 164.697C532.449 164.384 532.52 164.155 532.665 164.01C532.809 163.865 532.985 163.852 533.193 163.971C533.4 164.091 533.577 164.31 533.725 164.621C533.873 164.936 533.949 165.249 533.949 165.56C533.949 166.199 534.095 166.825 534.388 167.447C534.681 168.066 535.035 168.495 535.449 168.732L538.449 170.465C538.863 170.702 539.215 170.681 539.509 170.4C539.803 170.119 539.948 169.658 539.948 169.024V167.869C539.948 167.231 539.803 166.603 539.509 165.985C539.215 165.366 538.863 164.934 538.449 164.697L537.699 164.263C537.488 164.143 537.309 163.93 537.165 163.622C537.021 163.319 536.949 163.006 536.949 162.686C536.949 162.369 537.021 162.137 537.165 161.992C537.309 161.848 537.488 161.835 537.699 161.957L538.449 162.389C538.863 162.629 539.215 162.607 539.509 162.325C539.803 162.044 539.948 161.586 539.948 160.948V159.793C539.948 159.159 539.803 158.529 539.509 157.909C539.215 157.29 538.863 156.861 538.449 156.621L535.449 154.891C535.035 154.653 534.681 154.673 534.388 154.954C534.095 155.237 533.949 155.696 533.949 156.332C533.949 156.659 533.873 156.886 533.725 157.025C533.577 157.162 533.4 157.17 533.193 157.052C532.985 156.932 532.809 156.719 532.665 156.414C532.52 156.107 532.449 155.792 532.449 155.467C532.449 154.195 532.741 153.277 533.327 152.712C533.913 152.15 534.621 152.106 535.449 152.584L538.449 154.314C539.277 154.793 539.983 155.649 540.569 156.889C541.155 158.128 541.449 159.384 541.449 160.66V161.812C541.449 162.486 541.357 163.068 541.173 163.565C540.989 164.059 540.741 164.432 540.428 164.687C540.741 165.298 540.989 165.956 541.173 166.663C541.357 167.372 541.449 168.061 541.449 168.735Z" fill="#E1E1E1"/>
<mask id="mask3_1679_1155" style="mask-type:luminance" maskUnits="userSpaceOnUse" x="520" y="178" width="22" height="15">
<path d="M520.114 178.624H541.78V192.995H520.114V178.624Z" fill="white"/>
</mask>
<g mask="url(#mask3_1679_1155)">
<g opacity="0.149994">
<path d="M521.558 178.832L540.337 189.662C541.134 190.122 541.781 191.194 541.78 192.056C541.78 192.919 541.134 193.245 540.337 192.786L521.558 181.955C520.761 181.495 520.114 180.424 520.114 179.56C520.114 178.699 520.761 178.372 521.558 178.832Z" fill="#222831"/>
</g>
</g>
<path d="M475.642 111.274C476.045 111.506 476.398 111.795 476.705 112.137C477.009 112.478 477.266 112.835 477.469 113.201C477.673 113.566 477.827 113.932 477.934 114.292C478.038 114.653 478.095 114.97 478.109 115.243C478.113 115.358 478.091 115.436 478.041 115.475C477.99 115.515 477.931 115.518 477.866 115.478L477.235 115.114C477.133 115.057 477.057 114.981 477.005 114.893C476.954 114.804 476.907 114.694 476.866 114.571C476.777 114.287 476.639 114.008 476.457 113.73C476.274 113.454 476.002 113.215 475.642 113.007C475.486 112.915 475.337 112.855 475.197 112.824C475.057 112.794 474.934 112.796 474.827 112.832C474.723 112.868 474.639 112.939 474.579 113.043C474.519 113.147 474.491 113.288 474.491 113.462C474.491 113.675 474.518 113.865 474.577 114.031C474.633 114.198 474.727 114.367 474.863 114.544C474.999 114.718 475.177 114.91 475.399 115.122C475.621 115.332 475.897 115.589 476.227 115.889C476.587 116.217 476.897 116.537 477.159 116.85C477.421 117.161 477.631 117.476 477.798 117.798C477.962 118.122 478.086 118.452 478.167 118.793C478.247 119.135 478.287 119.495 478.287 119.875C478.287 120.291 478.227 120.642 478.109 120.925C477.989 121.212 477.817 121.417 477.595 121.545C477.374 121.67 477.101 121.714 476.777 121.675C476.451 121.635 476.09 121.498 475.687 121.266C475.35 121.073 475.03 120.827 474.723 120.525C474.418 120.224 474.147 119.888 473.91 119.515C473.673 119.143 473.483 118.75 473.338 118.335C473.194 117.918 473.113 117.505 473.095 117.088C473.09 116.973 473.113 116.896 473.163 116.855C473.214 116.815 473.273 116.815 473.338 116.855L473.967 117.219C474.07 117.276 474.147 117.349 474.202 117.434C474.257 117.521 474.301 117.63 474.337 117.762C474.379 117.906 474.43 118.056 474.491 118.21C474.551 118.365 474.631 118.52 474.733 118.668C474.834 118.818 474.962 118.969 475.115 119.118C475.27 119.266 475.459 119.406 475.687 119.536C475.867 119.64 476.041 119.721 476.21 119.776C476.378 119.831 476.525 119.847 476.65 119.823C476.777 119.799 476.879 119.737 476.957 119.64C477.035 119.542 477.073 119.386 477.073 119.173C477.073 118.969 477.031 118.782 476.946 118.602C476.863 118.425 476.735 118.24 476.563 118.051C476.394 117.858 476.182 117.647 475.931 117.421C475.678 117.192 475.387 116.919 475.057 116.599C474.757 116.315 474.495 116.032 474.27 115.751C474.046 115.467 473.858 115.174 473.713 114.869C473.563 114.563 473.454 114.238 473.383 113.897C473.311 113.556 473.275 113.176 473.275 112.762C473.275 112.346 473.334 111.997 473.454 111.716C473.574 111.435 473.739 111.23 473.949 111.102C474.161 110.974 474.41 110.922 474.702 110.946C474.994 110.971 475.306 111.081 475.642 111.274Z" fill="white"/>
<path d="M483.509 123.91C483.575 123.948 483.632 124.016 483.68 124.12C483.728 124.222 483.752 124.323 483.752 124.425V125.408C483.752 125.51 483.728 125.583 483.68 125.629C483.632 125.673 483.575 125.679 483.509 125.64L479.557 123.361C479.491 123.324 479.433 123.254 479.387 123.153C479.337 123.051 479.312 122.949 479.312 122.848V113.904C479.312 113.803 479.337 113.729 479.387 113.683C479.433 113.636 479.491 113.633 479.557 113.672L483.436 115.91C483.503 115.946 483.559 116.016 483.608 116.118C483.655 116.22 483.68 116.321 483.68 116.423V117.406C483.68 117.507 483.655 117.58 483.608 117.627C483.559 117.673 483.503 117.676 483.436 117.64L480.531 115.962V118.162L483.239 119.726C483.305 119.763 483.361 119.833 483.411 119.935C483.457 120.036 483.48 120.138 483.48 120.239V121.222C483.48 121.324 483.457 121.396 483.411 121.443C483.361 121.491 483.305 121.492 483.239 121.456L480.531 119.893V122.193L483.509 123.91Z" fill="white"/>
<path d="M489.062 119.154C489.127 119.19 489.184 119.261 489.232 119.362C489.28 119.463 489.304 119.566 489.304 119.667V120.65C489.304 120.751 489.28 120.824 489.232 120.871C489.184 120.918 489.127 120.92 489.062 120.884L487.442 119.948V127.534C487.442 127.635 487.418 127.711 487.368 127.757C487.32 127.801 487.264 127.807 487.199 127.768L486.47 127.346C486.403 127.31 486.346 127.239 486.299 127.138C486.251 127.037 486.226 126.936 486.226 126.834V119.247L484.606 118.313C484.54 118.275 484.483 118.207 484.435 118.106C484.387 118.002 484.364 117.903 484.364 117.801V116.818C484.364 116.716 484.387 116.64 484.435 116.597C484.483 116.55 484.54 116.545 484.606 116.583L489.062 119.154Z" fill="white"/>
<path d="M496.127 123.228C496.192 123.267 496.249 123.335 496.296 123.436C496.345 123.537 496.369 123.64 496.369 123.741V124.724C496.369 124.825 496.347 124.907 496.301 124.969C496.257 125.03 496.212 125.084 496.171 125.122L494.857 126.496C495.127 126.706 495.372 126.951 495.591 127.224C495.809 127.497 495.996 127.797 496.153 128.122C496.309 128.447 496.429 128.799 496.512 129.168C496.597 129.539 496.64 129.924 496.64 130.32C496.64 130.802 496.577 131.191 496.455 131.493C496.331 131.798 496.16 132.017 495.941 132.146C495.723 132.279 495.465 132.328 495.168 132.295C494.871 132.263 494.548 132.146 494.2 131.943C493.78 131.701 493.416 131.417 493.105 131.087C492.797 130.754 492.54 130.412 492.332 130.052C492.127 129.692 491.968 129.329 491.861 128.962C491.752 128.595 491.689 128.259 491.671 127.953C491.665 127.838 491.688 127.762 491.739 127.721C491.789 127.682 491.848 127.682 491.915 127.721L492.625 128.13C492.685 128.166 492.735 128.223 492.773 128.307C492.812 128.387 492.853 128.496 492.895 128.632C492.932 128.764 492.979 128.895 493.04 129.026C493.099 129.157 493.179 129.29 493.277 129.425C493.376 129.563 493.501 129.695 493.651 129.828C493.801 129.961 493.984 130.091 494.2 130.213C494.567 130.426 494.861 130.484 495.087 130.385C495.312 130.292 495.424 130.033 495.424 129.62C495.424 129.204 495.312 128.843 495.087 128.53C494.861 128.223 494.567 127.963 494.2 127.75L493.452 127.32C493.387 127.281 493.329 127.214 493.283 127.11C493.233 127.008 493.209 126.907 493.209 126.806V125.822C493.209 125.72 493.233 125.64 493.277 125.578C493.323 125.518 493.367 125.466 493.408 125.423L494.668 124.118L492.184 122.685C492.117 122.646 492.061 122.578 492.012 122.477C491.965 122.372 491.941 122.273 491.941 122.172V121.189C491.941 121.088 491.965 121.012 492.012 120.968C492.061 120.921 492.117 120.916 492.184 120.954L496.127 123.228Z" fill="white"/>
<path d="M536.958 105.18H541.165V134.26H541.147C541.198 134.605 541.005 134.959 540.549 135.222C539.727 135.696 538.395 135.696 537.574 135.222C537.118 134.959 536.925 134.605 536.975 134.26H536.958V105.18Z" fill="#E1E1E1"/>
<path d="M541.165 105.179C541.165 105.817 540.223 106.334 539.062 106.334C537.899 106.334 536.958 105.817 536.958 105.179C536.958 104.541 537.899 104.024 539.062 104.024C540.223 104.024 541.165 104.541 541.165 105.179Z" fill="#F0F0F0"/>
<path d="M439.469 48.9502H443.675V78.0304H443.658C443.709 78.3754 443.515 78.7297 443.059 78.9921C442.238 79.4663 440.906 79.4663 440.085 78.9921C439.629 78.7297 439.435 78.3754 439.486 78.0304H439.469V48.9502Z" fill="#E1E1E1"/>
<path d="M443.675 48.9502C443.675 49.5883 442.734 50.1051 441.573 50.1051C440.411 50.1051 439.469 49.5883 439.469 48.9502C439.469 48.3122 440.411 47.7954 441.573 47.7954C442.734 47.7954 443.675 48.3122 443.675 48.9502Z" fill="#F0F0F0"/>
</g>
<mask id="mask4_1679_1155" style="mask-type:luminance" maskUnits="userSpaceOnUse" x="0" y="0" width="667" height="666">
<path d="M0 0H666.667V666H0V0Z" fill="white"/>
</mask>
<g mask="url(#mask4_1679_1155)">
<path d="M76.0406 543.306C81.8352 546.648 81.8352 552.067 76.0406 555.409C70.2459 558.751 60.8526 558.751 55.0579 555.409C49.2646 552.067 49.2646 546.648 55.0579 543.306C60.8526 539.964 70.2459 539.964 76.0406 543.306Z" fill="#E1E1E1"/>
<path d="M40.5191 375.962C50.8751 384.21 56.6364 387.833 68.3084 387.825C71.8577 387.824 78.5937 385.964 81.3217 382.367C83.8991 378.967 83.9684 375.659 85.6817 372.45C88.1164 367.888 94.1417 364.57 99.0577 362.833C104.686 360.844 110.81 360.584 116.739 360.113C126.179 359.363 135.664 359.624 145.126 359.616C153.052 359.609 161.011 359.455 168.867 358.376C175.519 357.462 183.466 356.458 188.892 352.435C191.123 350.782 193.031 348.158 192.274 345.583C191.675 343.546 189.619 342.231 187.65 341.215C178.12 336.295 167.135 334.222 156.583 332.174C144.748 329.877 132.752 328.415 120.747 327.179C107.85 325.853 94.8297 325.131 81.9391 326.508C21.2364 332.993 20.1231 359.719 40.5191 375.962Z" fill="#E1E1E1"/>
<path d="M584.972 483.934L407.371 586.37L119.365 420.256L296.967 317.82L584.972 483.934Z" fill="#E1E1E1"/>
<path d="M230.826 520.497L221.773 515.209C207.333 506.791 188.226 501.969 169.32 501.969C166.453 501.969 163.613 502.075 160.84 502.302C160.813 502.302 160.773 502.302 160.746 502.315C160.026 502.368 159.306 502.435 158.6 502.502C158.373 502.528 158.16 502.541 157.946 502.568C157.173 502.648 156.426 502.741 155.666 502.848C155.506 502.861 155.333 502.888 155.16 502.914C154.506 502.994 153.866 503.088 153.226 503.194C152.92 503.234 152.613 503.287 152.306 503.341C151.666 503.447 151.026 503.567 150.4 503.687C150.266 503.7 150.146 503.727 150.026 503.754C147.986 504.14 145.813 504.34 143.56 504.34C137 504.34 130.12 502.608 125.173 499.718L85.1865 476.381C84.3465 475.902 83.3598 475.662 82.2398 475.662C77.0531 475.662 62.8265 483.214 61.4665 488.422C60.9198 490.554 61.8265 492.711 63.7998 493.817L105.413 516.115C110.106 518.632 114.04 522.695 112.533 526.224C112.186 526.89 111.866 527.57 111.573 528.249C111.453 528.542 111.333 528.835 111.213 529.142C110.986 529.728 110.773 530.327 110.586 530.926C110.493 531.233 110.413 531.526 110.333 531.832C110.253 532.139 110.173 532.445 110.106 532.751C110.04 533.058 109.973 533.364 109.92 533.67L109.8 534.35C109.586 535.735 109.493 537.147 109.52 538.572C109.546 539.544 109.626 540.517 109.76 541.489C111.32 552.665 120.413 563.401 135.173 571.326L144.613 576.388C159.64 584.446 179.08 589.082 197.946 589.082C214.106 589.082 228.733 585.672 239.133 579.491C249.773 573.177 255.613 564.2 255.573 554.236C255.52 541.942 246.506 529.634 230.826 520.497Z" fill="#E1E1E1"/>
<path d="M581.036 552.691C590.646 551.379 600.161 549.274 609.342 546.127C617.153 543.451 625.794 539.299 630.757 532.398C634.162 527.662 635.668 521.839 632.16 516.752C627.284 509.684 620.425 504.977 612.27 502.309C604.248 499.684 595.561 499.114 587.262 500.665C582.909 501.481 578.257 503.192 576.142 507.079C574.501 510.097 574.434 513.682 572.684 516.667C571.106 519.355 568.072 520.759 565.186 521.599C559.421 523.279 553.372 523.686 547.373 523.959C540.569 524.27 533.758 524.418 526.948 524.407C518.313 524.391 509.03 524.303 501.93 529.21C499.533 530.867 497.148 533.702 497.14 536.805C497.126 541.378 503.689 545.767 507.305 547.505C512.709 550.101 518.554 551.673 524.422 552.813C543.228 556.467 562.188 555.264 581.036 552.691Z" fill="#E1E1E1"/>
</g>
<mask id="mask5_1679_1155" style="mask-type:luminance" maskUnits="userSpaceOnUse" x="0" y="0" width="667" height="666">
<path d="M0 0H666.667V666H0V0Z" fill="white"/>
</mask>
<g mask="url(#mask5_1679_1155)">
<path d="M161.159 494.801L160.247 503.002L112.944 531.117L113.856 522.914C114.147 521.342 114.68 519.801 115.345 518.28C114.12 514.989 111.032 511.8 106.387 509.312L64.7774 487.005C64.4827 486.841 64.3667 486.601 64.4001 486.304C64.5347 485.139 65.2787 478.401 65.3107 478.106C65.6307 475.201 80.3481 466.76 83.2347 468.375L123.159 491.684C130.701 496.092 141.591 497.95 150.779 496.188C154.141 495.54 157.615 495.081 161.159 494.801Z" fill="#222831"/>
<path d="M228.815 512.462C244.904 521.844 252.628 534.02 251.419 545.105C251.266 546.52 250.616 552.086 250.459 553.465C249.628 560.754 244.955 567.561 236.18 572.777C214 585.959 173.444 584.528 145.595 569.581L136.159 564.518C119.56 555.609 111.587 543.725 112.76 532.643C112.911 531.22 113.551 525.641 113.704 524.263C114.535 516.814 119.484 509.735 128.823 504.185L129.139 503.997C152.434 490.152 193.003 491.576 219.752 507.175L228.815 512.462Z" fill="#1C2541"/>
<mask id="mask6_1679_1155" style="mask-type:luminance" maskUnits="userSpaceOnUse" x="112" y="494" width="140" height="88">
<path d="M112.646 494.477H251.542V581.799H112.646V494.477Z" fill="white"/>
</mask>
<g mask="url(#mask6_1679_1155)">
<g opacity="0.399994">
<path d="M228.815 512.462C244.905 521.844 252.629 534.02 251.419 545.105C251.266 546.52 250.617 552.086 250.459 553.465C249.629 560.754 244.955 567.561 236.181 572.777C214.001 585.959 173.445 584.528 145.595 569.581L136.159 564.518C119.561 555.609 111.587 543.725 112.761 532.643C112.911 531.22 113.551 525.641 113.705 524.263C114.535 516.814 119.485 509.735 128.823 504.185L129.139 503.997C152.434 490.152 193.003 491.576 219.753 507.175L228.815 512.462Z" fill="#222831"/>
</g>
</g>
<path d="M129.14 503.997L128.824 504.185C105.529 518.03 109.222 541.37 137.072 556.317L146.508 561.38C174.357 576.327 214.913 577.758 237.092 564.575C259.27 551.394 255.566 528.061 228.816 512.462L219.752 507.175C193.002 491.576 152.433 490.152 129.14 503.997Z" fill="#222831"/>
<path d="M161.158 494.801C157.615 495.082 154.142 495.539 150.778 496.188C141.59 497.95 130.702 496.092 123.158 491.684L83.2349 468.376C80.0536 466.596 62.5083 477.024 65.6883 478.804L107.299 501.111C115.166 505.325 118.722 511.541 115.946 516.89C114.923 518.848 114.235 520.863 113.856 522.915L161.158 494.801Z" fill="#393E46"/>
</g>
<mask id="mask7_1679_1155" style="mask-type:luminance" maskUnits="userSpaceOnUse" x="0" y="0" width="667" height="666">
<path d="M0 0H666.667V666H0V0Z" fill="white"/>
</mask>
<g mask="url(#mask7_1679_1155)">
<path d="M65.9115 550.574C59.0862 550.574 53.5342 545.028 53.5342 538.21C53.5342 531.392 59.0862 525.846 65.9115 525.846C72.7368 525.846 78.2888 531.392 78.2888 538.21C78.2888 545.028 72.7368 550.574 65.9115 550.574Z" fill="white"/>
<path d="M65.9112 525.179C58.7072 525.179 52.8672 531.013 52.8672 538.21C52.8672 545.407 58.7072 551.241 65.9112 551.241C73.1152 551.241 78.9552 545.407 78.9552 538.21C78.9552 531.013 73.1152 525.179 65.9112 525.179ZM65.9112 526.511C72.3685 526.511 77.6219 531.759 77.6219 538.21C77.6219 544.661 72.3685 549.909 65.9112 549.909C59.4539 549.909 54.2005 544.661 54.2005 538.21C54.2005 531.759 59.4539 526.511 65.9112 526.511Z" fill="#F5F5F5"/>
<path d="M78.2356 542.471C76.4756 547.573 71.6223 551.236 65.9156 551.236C58.7023 551.236 52.8623 545.402 52.8623 538.209C52.8623 535.265 53.8356 532.548 55.5023 530.363C55.409 530.976 55.369 531.589 55.369 532.215C55.369 539.794 61.529 545.948 69.1156 545.948C72.609 545.948 75.8223 544.642 78.2356 542.471Z" fill="#F5F5F5"/>
<mask id="mask8_1679_1155" style="mask-type:luminance" maskUnits="userSpaceOnUse" x="157" y="520" width="31" height="18">
<path d="M157.694 520.828H187.368V537.943H157.694V520.828Z" fill="white"/>
</mask>
<g mask="url(#mask8_1679_1155)">
<g opacity="0.199997">
<path d="M183.022 523.334C188.817 526.676 188.817 532.095 183.022 535.437C177.227 538.779 167.834 538.779 162.039 535.437C156.245 532.095 156.245 526.676 162.039 523.334C167.834 519.992 177.227 519.992 183.022 523.334Z" fill="#222831"/>
</g>
</g>
<mask id="mask9_1679_1155" style="mask-type:luminance" maskUnits="userSpaceOnUse" x="176" y="537" width="31" height="18">
<path d="M176.822 537.859H206.496V554.974H176.822V537.859Z" fill="white"/>
</mask>
<g mask="url(#mask9_1679_1155)">
<g opacity="0.199997">
<path d="M202.15 540.365C207.945 543.707 207.945 549.126 202.15 552.468C196.356 555.81 186.962 555.81 181.168 552.468C175.373 549.126 175.374 543.707 181.168 540.365C186.962 537.023 196.356 537.023 202.15 540.365Z" fill="#222831"/>
</g>
</g>
<path d="M185.937 518.238C185.937 525.435 180.097 531.269 172.893 531.269C165.689 531.269 159.849 525.435 159.849 518.238C159.849 511.041 165.689 505.207 172.893 505.207C180.097 505.207 185.937 511.041 185.937 518.238Z" fill="white"/>
<path d="M185.218 522.499C183.458 527.601 178.605 531.264 172.898 531.264C165.685 531.264 159.845 525.43 159.845 518.237C159.845 515.293 160.818 512.576 162.485 510.391C162.391 511.004 162.351 511.617 162.351 512.243C162.351 519.822 168.511 525.976 176.098 525.976C179.591 525.976 182.805 524.67 185.218 522.499Z" fill="#F5F5F5"/>
<path d="M205.065 535.269C205.065 542.466 199.225 548.3 192.021 548.3C184.817 548.3 178.977 542.466 178.977 535.269C178.977 528.072 184.817 522.238 192.021 522.238C199.225 522.238 205.065 528.072 205.065 535.269Z" fill="white"/>
<path d="M204.346 539.53C202.586 544.632 197.733 548.295 192.026 548.295C184.813 548.295 178.973 542.461 178.973 535.268C178.973 532.324 179.946 529.607 181.613 527.422C181.519 528.035 181.479 528.648 181.479 529.274C181.479 536.853 187.639 543.007 195.226 543.007C198.719 543.007 201.933 541.702 204.346 539.53Z" fill="#F5F5F5"/>
</g>
<mask id="mask10_1679_1155" style="mask-type:luminance" maskUnits="userSpaceOnUse" x="0" y="0" width="667" height="666">
<path d="M0 0H666.667V666H0V0Z" fill="white"/>
</mask>
<g mask="url(#mask10_1679_1155)">
<path d="M62.8302 353.261C62.1115 349.875 65.3809 343.242 67.2955 340.892C73.5409 333.233 90.7075 319.388 95.3355 315.241C101.773 309.472 104.818 306.098 106.785 297.39C109.192 286.728 115.705 249.131 115.705 249.131C115.705 249.131 125.346 239.397 125.297 228.651L80.2555 225.903C80.2555 225.903 77.5849 232.358 77.4755 246.782C77.3955 257.403 78.0209 295.867 78.0209 295.867C78.0209 295.867 72.8755 299.668 68.7195 305.022C65.6542 308.97 58.8502 321.698 53.0542 331.218C51.3769 333.973 49.5155 337.273 47.7195 340.573C45.9235 343.871 62.8302 353.261 62.8302 353.261Z" fill="#FFBEA7"/>
<path d="M71.1175 377.736C70.8135 378.772 70.4135 379.393 66.2935 378.972C62.0655 378.541 56.8468 376.005 52.8482 372.821C48.8495 369.639 46.7908 363.849 46.2068 360.192C45.6242 356.535 42.9882 352.127 41.0935 349.576C39.2002 347.026 38.6068 345.792 39.1935 345.055C39.7802 344.319 41.5308 342.47 41.5308 342.47L71.1175 377.736Z" fill="#ECECEC"/>
<path d="M43.1782 339.254C44.9729 336.96 48.1195 336.371 50.1009 334.255C50.4355 333.898 50.6035 333.561 50.8889 333.162C51.1262 332.833 51.6995 332.591 52.0022 332.974L51.1142 334.497C50.8062 334.903 50.6049 335.85 50.6982 336.352C50.7515 336.648 50.8782 336.925 50.9609 337.214C51.0889 337.654 51.1169 338.123 51.0302 338.572C50.9702 338.883 50.8555 339.191 50.8595 339.508C50.8649 339.826 51.0369 340.175 51.3462 340.251C51.5355 340.298 51.7315 340.234 51.9155 340.17C52.6155 339.93 53.4515 339.413 54.1809 339.756C54.6355 339.97 54.9622 340.451 55.2249 341.106C55.3969 340.306 55.5595 339.565 55.8662 339.207C56.2035 338.813 56.6075 338.782 56.8635 338.963C60.6315 341.634 62.5129 342.492 64.7422 343.094C67.3409 343.796 65.1462 344.462 64.9249 347.128C64.7035 349.795 64.9622 351.842 65.5702 356.018C66.0875 359.563 66.3169 362.109 67.2822 364.159C67.8595 365.387 68.6062 366.962 69.3235 368.234C71.2369 371.626 71.9542 372.723 72.5435 373.65C73.1315 374.577 72.4089 376.623 71.4115 377.566C70.4142 378.508 62.4675 378.2 56.1849 373.321C49.9022 368.442 49.2609 364.519 48.5622 359.678C47.8649 354.838 45.6609 351.375 44.3195 349.66C42.9782 347.945 41.0595 345.615 40.5195 343.626C40.5195 343.626 41.2542 341.712 43.1782 339.254Z" fill="#393E46"/>
<mask id="mask11_1679_1155" style="mask-type:luminance" maskUnits="userSpaceOnUse" x="40" y="332" width="33" height="46">
<path d="M40.5195 332.779H72.7554V377.99H40.5195V332.779Z" fill="white"/>
</mask>
<g mask="url(#mask11_1679_1155)">
<g opacity="0.199997">
<path d="M43.1792 339.254C44.9738 336.96 48.1205 336.372 50.1018 334.255C50.4365 333.898 50.6045 333.561 50.8898 333.163C51.1272 332.834 51.7005 332.591 52.0032 332.975L51.1152 334.497C50.8072 334.904 50.6058 335.851 50.6992 336.353C50.7525 336.649 50.8792 336.926 50.9618 337.215C51.0898 337.654 51.1178 338.123 51.0312 338.572C50.9712 338.884 50.8565 339.191 50.8605 339.508C50.8658 339.827 51.0378 340.177 51.3472 340.253C51.5365 340.299 51.7325 340.235 51.9165 340.171C52.6165 339.932 53.4525 339.415 54.1818 339.757C54.6365 339.972 54.9632 340.451 55.2258 341.107C55.3978 340.306 55.5605 339.566 55.8672 339.207C56.2045 338.813 56.6085 338.782 56.8645 338.964C60.6325 341.634 62.5138 342.492 64.7432 343.094C67.3418 343.796 65.1472 344.462 64.9258 347.129C64.7045 349.795 64.9632 351.844 65.5712 356.02C66.0885 359.564 66.3178 362.11 67.2832 364.16C67.8605 365.388 68.6072 366.962 69.3245 368.234C71.2378 371.627 71.9552 372.723 72.5445 373.65C73.1325 374.577 72.4098 376.623 71.4125 377.566C70.4152 378.508 62.4685 378.201 56.1858 373.322C49.9032 368.443 49.2618 364.519 48.5632 359.679C47.8658 354.838 45.6618 351.376 44.3205 349.662C42.9792 347.946 41.0605 345.617 40.5205 343.628C40.5205 343.628 41.2552 341.713 43.1792 339.254Z" fill="#222831"/>
</g>
</g>
<path d="M55.8659 339.207C56.2033 338.812 56.6073 338.782 56.8633 338.964C60.6326 341.635 62.5126 342.491 64.7419 343.094C67.3406 343.795 66.0193 344.812 65.6139 347.648C65.2366 350.297 64.9619 351.843 65.5699 356.018C66.0873 359.562 66.3166 362.109 67.2819 364.16C67.4673 364.555 67.6739 364.989 67.8886 365.434H67.8873C66.7206 365.917 63.0193 365.402 61.0446 364.243C59.7526 362.222 56.5473 352.336 55.2246 341.106C55.3966 340.306 55.5593 339.565 55.8659 339.207Z" fill="#586A81"/>
<path d="M71.4457 374.614C70.0244 374.333 68.479 374.005 68.2017 374.454C67.923 374.903 66.6244 377.548 65.5244 378.105C64.423 378.662 63.471 378.5 62.2057 378.03C60.9417 377.56 55.7204 375.109 53.1017 372.749C50.483 370.39 48.4044 367.519 47.1657 363.214C45.9297 358.909 46.131 357.207 43.7097 353.206C41.2884 349.206 39.8177 347.771 38.9297 345.635C38.9297 345.635 38.387 346.183 38.123 346.604C38.123 346.604 38.5644 347.995 39.423 349.115C40.283 350.234 43.2764 353.992 44.1924 356.058C45.107 358.123 45.8124 361.18 46.4364 363.723C47.0617 366.266 49.215 370.618 52.7364 373.464C56.2564 376.309 61.6604 379.052 65.827 379.509C69.995 379.966 70.519 379.325 71.0257 379.052C71.5324 378.779 72.855 376.299 72.911 375.643C72.967 374.988 72.4644 374.816 71.4457 374.614Z" fill="#393E46"/>
<path d="M60.0893 362.109C63.4799 361.569 65.8399 361.864 66.6973 362.579C66.6973 362.579 67.4053 363.46 67.2826 364.16C67.2826 364.16 65.3879 363.173 60.7039 363.699C60.7039 363.699 59.7013 363.085 60.0893 362.109Z" fill="#393E46"/>
<path d="M65.9998 359.046C64.1411 358.179 61.5718 357.938 58.0678 358.227C58.0678 358.227 57.2838 357.718 57.5184 356.675C57.5184 356.675 62.3971 355.691 65.7931 357.584C65.7931 357.584 66.3758 358.403 65.9998 359.046Z" fill="#393E46"/>
<path d="M65.3075 354.175C64.0182 352.866 58.5075 352.843 56.6062 353.428C56.6062 353.428 55.6048 352.945 56.1142 351.746C56.1142 351.746 61.2248 350.312 65.0715 352.346C65.0715 352.346 65.9488 353.359 65.3075 354.175Z" fill="#393E46"/>
<path d="M65.3154 349.91C64.6048 349.405 59.7888 347.291 56.1074 348.366C56.1074 348.366 55.4248 347.678 55.8621 346.732C55.8621 346.732 61.0261 345.409 65.5368 348.195C65.5368 348.195 65.6301 348.976 65.3154 349.91Z" fill="#393E46"/>
<path d="M149.763 307.074C150.961 297.308 151.112 291.112 152.745 283.229C153.617 279.017 155.812 274.339 158.869 271.482L112.241 253.708L135.383 219.804C147.356 225.997 171.563 241.214 179.645 250.019C187.677 258.768 184.163 265.29 180.789 276.973C178.359 285.389 169.643 303.938 164.013 318.476C161.667 324.54 163.64 326.974 164.345 330.331C164.345 330.331 154.797 334.452 150.289 334.278C145.781 334.102 145.5 330.584 145.5 330.584C145.321 329.273 145.741 327.433 146.6 326.524C146.6 326.524 148.873 314.32 149.763 307.074Z" fill="#FFBEA7"/>
<path d="M185.766 345.36C186.091 346.319 186.119 347.012 182.727 348.904C179.247 350.847 173.873 351.705 169.086 351.412C164.299 351.117 159.598 347.777 157.179 345.283C154.761 342.788 150.361 340.821 147.531 339.879C144.703 338.939 143.583 338.31 143.637 337.43C143.69 336.549 144.038 334.188 144.038 334.188L185.766 345.36Z" fill="#ECECEC"/>
<path d="M143.57 330.83C143.712 328.104 145.813 325.959 146.193 323.267C146.257 322.813 146.276 322.339 146.481 321.929C146.686 321.518 147.077 321.183 147.517 321.315C147.517 321.315 147.452 322.497 147.426 323.157C147.408 323.635 147.441 324.222 147.781 324.558C147.982 324.755 148.229 324.902 148.449 325.079C148.784 325.347 149.057 325.693 149.233 326.083C149.356 326.355 149.432 326.653 149.608 326.894C149.784 327.137 150.102 327.313 150.381 327.203C150.552 327.137 150.668 326.982 150.774 326.836C151.182 326.274 151.546 325.428 152.292 325.299C152.756 325.217 153.266 325.412 153.821 325.774C153.521 325.067 153.246 324.412 153.289 323.971C153.336 323.487 153.629 323.245 153.925 323.247C158.258 323.271 160.165 322.918 162.201 322.182C164.576 321.323 163.249 323.016 164.516 325.183C165.782 327.35 167.085 328.783 169.802 331.663C172.109 334.107 173.658 335.94 175.504 336.995C176.609 337.628 178.032 338.435 179.268 339.026C182.566 340.603 183.708 341.059 184.658 341.454C185.61 341.85 186.158 343.811 185.9 345.069C185.641 346.33 179.373 350.368 171.918 349.999C164.464 349.632 161.857 346.964 158.713 343.62C155.568 340.278 152.009 338.804 150.056 338.208C148.101 337.613 145.372 336.855 143.885 335.619C143.885 335.619 143.418 333.753 143.57 330.83Z" fill="#2C4850"/>
<mask id="mask12_1679_1155" style="mask-type:luminance" maskUnits="userSpaceOnUse" x="143" y="321" width="43" height="30">
<path d="M143.539 321.286H185.964V350.023H143.539V321.286Z" fill="white"/>
</mask>
<g mask="url(#mask12_1679_1155)">
<g opacity="0.199997">
<path d="M143.57 330.83C143.712 328.104 145.813 325.959 146.193 323.267C146.257 322.813 146.276 322.339 146.481 321.929C146.686 321.518 147.077 321.183 147.517 321.315C147.517 321.315 147.452 322.497 147.426 323.157C147.408 323.635 147.441 324.222 147.781 324.558C147.982 324.755 148.229 324.902 148.449 325.079C148.784 325.347 149.057 325.693 149.233 326.083C149.356 326.355 149.432 326.653 149.608 326.894C149.784 327.137 150.102 327.313 150.381 327.203C150.552 327.137 150.668 326.982 150.774 326.836C151.182 326.274 151.546 325.428 152.292 325.299C152.756 325.217 153.266 325.412 153.821 325.774C153.521 325.067 153.246 324.412 153.289 323.971C153.336 323.487 153.629 323.245 153.925 323.247C158.258 323.271 160.165 322.918 162.201 322.182C164.576 321.323 163.249 323.016 164.516 325.183C165.782 327.35 167.085 328.783 169.802 331.663C172.109 334.107 173.658 335.94 175.504 336.995C176.609 337.628 178.032 338.435 179.268 339.026C182.566 340.603 183.708 341.059 184.658 341.454C185.61 341.85 186.158 343.811 185.9 345.069C185.641 346.33 179.373 350.368 171.918 349.999C164.464 349.632 161.857 346.964 158.713 343.62C155.568 340.278 152.009 338.804 150.056 338.208C148.101 337.613 145.372 336.855 143.885 335.619C143.885 335.619 143.418 333.753 143.57 330.83Z" fill="#222831"/>
</g>
</g>
<path d="M153.29 323.971C153.336 323.487 153.63 323.246 153.924 323.247C158.259 323.271 160.164 322.918 162.202 322.182C164.575 321.323 164.108 322.814 165.326 325.211C166.462 327.448 167.084 328.783 169.802 331.663C172.11 334.107 173.658 335.94 175.504 336.995C175.859 337.199 176.252 337.421 176.656 337.647V337.649C176.02 338.646 172.9 340.242 170.759 340.414C168.678 339.556 160.888 333.687 153.822 325.774C153.522 325.067 153.247 324.411 153.29 323.971Z" fill="#586A81"/>
<path d="M184.335 342.785C183.093 343.333 181.729 343.913 181.757 344.408C181.786 344.902 182.214 347.631 181.669 348.651C181.123 349.672 180.305 350.059 179.081 350.378C177.855 350.697 172.525 351.623 169.242 351.219C165.959 350.816 162.815 349.729 159.545 347.088C156.275 344.446 155.513 343.03 151.497 341.26C147.481 339.491 145.579 339.178 143.746 338.015C143.746 338.015 143.625 338.729 143.649 339.195C143.649 339.195 144.738 340.025 146.001 340.424C147.263 340.821 151.587 342.097 153.403 343.191C155.221 344.285 157.409 346.254 159.259 347.871C161.109 349.488 165.109 351.672 169.346 351.964C173.583 352.257 179.213 351.457 182.658 349.566C186.105 347.676 186.163 346.902 186.405 346.42C186.646 345.938 186.326 343.321 186.015 342.788C185.706 342.254 185.227 342.392 184.335 342.785Z" fill="#393E46"/>
<path d="M168.875 339.289C171.188 337.051 173.159 336.008 174.203 336.096C174.203 336.096 175.222 336.392 175.504 336.995C175.504 336.995 173.518 337.256 170.203 340.18C170.203 340.18 169.103 340.247 168.875 339.289Z" fill="#393E46"/>
<path d="M171.763 333.759C169.869 334.092 167.765 335.289 165.23 337.395C165.23 337.395 164.353 337.426 163.973 336.498C163.973 336.498 167.187 333.119 170.815 332.746C170.815 332.746 171.705 333.062 171.763 333.759Z" fill="#393E46"/>
<path d="M168.606 330.389C166.91 330.077 162.666 333.024 161.521 334.494C161.521 334.494 160.49 334.662 160.235 333.469C160.235 333.469 163.389 329.618 167.439 329.112C167.439 329.112 168.658 329.417 168.606 330.389Z" fill="#393E46"/>
<path d="M166.315 327.11C165.496 327.104 160.659 328.07 158.411 330.876C158.411 330.876 157.515 330.714 157.342 329.752C157.342 329.752 160.595 325.96 165.56 325.672C165.56 325.672 166.054 326.222 166.315 327.11Z" fill="#393E46"/>
<path d="M81.5976 214.739C79.515 221.706 76.1323 229.395 76.7136 240.138C77.2803 250.618 77.1496 278.342 77.1496 278.342C77.1496 278.342 90.8776 290.461 110.234 281.7C110.234 281.7 112.15 272.819 114.131 266.129C116.54 257.995 118.678 256.387 118.678 256.387L139.294 264.026C139.294 264.026 138.784 254.859 145.631 246.338C152.55 237.731 161.863 235.876 161.863 235.876C161.863 235.876 143.328 222.722 137.291 219.645C133.708 217.819 132.967 217.952 132.967 217.952L81.5976 214.739Z" fill="#0B132B"/>
<path d="M118.677 256.388C122.915 251.158 127.561 247.972 131.095 246.102C126.178 249.2 122.291 253.997 123.262 255.798C124.233 257.598 139.293 264.025 139.293 264.025L118.677 256.388Z" fill="#222831"/>
<path d="M219.178 179.935C216.185 178.682 209.539 177.452 206.849 180.194C204.157 182.938 205.134 188.462 207.434 191.339C209.734 194.215 219.178 179.935 219.178 179.935Z" fill="#FF9A79"/>
<path d="M199.285 201.26C195.509 201.869 172.827 206.9 169.309 207.392C161.709 208.452 161.383 207.386 157.263 203.691C149.78 196.982 134.796 180.776 134.796 180.776L142.231 159.982C148.372 160.227 148.995 163.586 155.751 172.915C160.281 179.172 168.973 190.56 168.973 190.56C168.973 190.56 189.729 189.384 194.691 188.17C199.653 186.955 199.759 184.995 201.423 182.062C202.652 179.894 203.293 178.999 206.375 177.998L207.556 181.788L207.535 182.626L203.019 188.453C203.099 188.477 214.413 188.894 213.947 191.984C213.479 195.091 213.017 197.139 209.624 198.463C207.38 199.34 203.061 200.652 199.285 201.26Z" fill="#FFBEA7"/>
<path d="M204.169 194.786C204.821 194.121 204.877 193.072 204.363 192.296C204.361 192.292 204.358 192.288 204.355 192.285C203.933 191.642 203.557 190.971 203.233 190.275C203.09 189.969 202.957 189.648 202.962 189.313C202.966 189.005 203.087 188.725 203.258 188.468C204.874 188.563 214.375 189.146 213.947 191.983C213.458 195.222 213.047 197.286 209.179 198.618C209.169 198.618 208.857 198.476 208.435 198.271C208.014 198.064 207.593 197.752 207.193 197.429C206.427 196.809 205.625 196.122 205.371 195.171C205.337 195.043 205.327 194.91 205.309 194.779C205.049 195.071 204.749 195.323 204.43 195.524C203.791 195.938 203.078 196.17 202.359 196.31C203.006 195.8 203.646 195.319 204.169 194.786Z" fill="#FF9A79"/>
<path d="M230.263 173.572L228.921 171.285L211.365 169.219L212.707 171.505C212.997 171.928 213.356 172.31 213.751 172.67C213.823 173.796 213.333 175.134 212.297 176.472L203.012 188.45C202.947 188.537 202.944 188.623 202.992 188.706C203.184 189.03 204.285 190.909 204.333 190.992C204.807 191.802 210.229 192.354 210.864 191.503L219.524 179.45C221.16 177.172 224.111 175.205 227.036 174.522C228.108 174.271 229.187 173.953 230.263 173.572Z" fill="#222831"/>
<path d="M247.796 159.552C251.287 154.698 251.959 150.117 250.154 147.023C249.923 146.629 249.004 145.08 248.778 144.696C247.579 142.667 245.318 141.281 242.06 140.897C233.83 139.929 222.12 145.647 215.908 153.67L213.803 156.388C210.1 161.169 209.316 165.696 211.112 168.794C211.342 169.193 212.26 170.746 212.486 171.129C213.704 173.206 216.083 174.635 219.548 175.043L219.667 175.058C228.312 176.075 240.026 170.357 245.83 162.286L247.796 159.552Z" fill="#111627"/>
<mask id="mask13_1679_1155" style="mask-type:luminance" maskUnits="userSpaceOnUse" x="210" y="140" width="42" height="36">
<path d="M210.188 140.79H251.124V175.175H210.188V140.79Z" fill="white"/>
</mask>
<g mask="url(#mask13_1679_1155)">
<g opacity="0.399994">
<path d="M247.796 159.552C251.287 154.698 251.959 150.117 250.154 147.023C249.923 146.629 249.004 145.08 248.778 144.696C247.579 142.667 245.318 141.281 242.06 140.897C233.83 139.929 222.12 145.647 215.908 153.67L213.803 156.388C210.1 161.169 209.316 165.696 211.112 168.794C211.342 169.193 212.26 170.746 212.486 171.129C213.704 173.206 216.083 174.635 219.548 175.043L219.667 175.058C228.312 176.075 240.026 170.357 245.83 162.286L247.796 159.552Z" fill="#222831"/>
</g>
</g>
<path d="M219.667 175.058L219.549 175.044C210.904 174.027 208.932 166.698 215.144 158.675L217.249 155.957C223.461 147.934 235.171 142.216 243.401 143.184C251.633 144.152 253.601 151.481 247.797 159.552L245.829 162.286C240.025 170.357 228.312 176.075 219.667 175.058Z" fill="#14213D"/>
<path d="M210.591 153.529C213.36 149.286 216.859 145.416 221.176 142.565C223.337 141.16 225.681 140.017 228.144 139.263C230.599 138.485 233.159 138.107 235.7 138.072C230.733 139.161 226.043 140.92 221.908 143.679C217.739 146.381 214.181 149.94 210.591 153.529Z" fill="#E1E1E1"/>
<path d="M214.399 142.819C215.151 141.661 216.15 140.684 217.211 139.817C218.274 138.941 219.437 138.205 220.641 137.541C221.857 136.905 223.119 136.343 224.45 135.96C225.767 135.579 227.186 135.318 228.557 135.542C227.225 135.876 226.021 136.393 224.813 136.935C223.615 137.494 222.433 138.081 221.271 138.715C218.93 139.966 216.669 141.299 214.399 142.819Z" fill="#E1E1E1"/>
<path d="M230.263 173.572C229.187 173.953 228.108 174.272 227.036 174.522C224.111 175.205 221.16 177.172 219.524 179.451L210.865 191.505C210.164 192.441 203.653 191.675 204.353 190.737L213.639 178.757C215.395 176.494 215.624 174.206 214.109 172.999C213.552 172.559 213.087 172.057 212.707 171.506L230.263 173.572Z" fill="#393E46"/>
<path d="M219.175 179.933C218.501 180.972 217.72 181.964 216.995 182.974C216.995 182.974 213.091 185.595 212.316 186.067C211.671 186.461 208.287 184.54 205.793 184.861C205.121 184.948 203.799 185.642 204.127 186.498C204.273 186.879 204.604 187.115 204.959 187.383C204.86 187.553 204.717 187.824 204.695 188.003C204.624 188.555 204.705 189.056 205.107 189.68C205.343 190.048 205.544 190.218 205.544 190.218C205.345 190.606 205.241 190.761 205.16 191.056C205.056 191.439 205.16 191.677 205.407 192.262C205.475 192.424 205.788 192.893 205.98 193.132C205.569 193.491 205.568 193.967 205.945 194.647C206.219 195.142 206.724 195.645 207.139 196.001C208.573 197.23 210.1 198.012 212.073 197.814C213.013 197.719 213.86 196.809 214.457 196.162C214.953 195.625 215.336 195.004 215.812 194.458C215.977 194.269 217.192 193.257 217.128 193.064C217.391 192.779 217.656 192.487 217.825 192.139C218.113 191.542 218.096 190.83 218.407 190.244C218.676 189.738 219.161 189.385 219.515 188.933C219.931 188.4 220.156 187.721 220.141 187.046C220.132 186.645 220.043 186.244 220.085 185.844C220.204 184.741 221.299 183.907 221.341 182.799C221.363 182.232 221.095 181.684 220.72 181.257C220.457 180.956 220.144 180.711 219.824 180.475C219.613 180.322 219.415 180.031 219.175 179.933Z" fill="#FFBEA7"/>
<path d="M212.68 176.82C213.318 177.109 215.491 179.327 216.687 180.411C217.427 181.083 216.875 182.327 214.582 182.15C212.316 181.974 211.07 180.723 211.07 180.723L207.535 182.626L206.375 177.999C208.302 177.373 211.475 176.274 212.68 176.82Z" fill="#FFBEA7"/>
<path d="M204.959 187.382C206.996 188.337 209.127 189.344 211.27 189.949C212.31 190.246 213.306 189.709 214.264 189.065C215.24 188.473 216.224 187.89 217.254 187.357C215.864 188.416 214.588 189.604 212.992 190.374C212.424 190.606 211.746 190.675 211.14 190.533C208.888 189.832 206.824 188.789 204.959 187.382Z" fill="#FF9A79"/>
<path d="M205.543 190.219C207.356 191.203 209.242 192.009 211.068 192.983C212.947 194.232 214.654 191.989 216.28 191.22C215.09 192.205 214.055 193.685 212.415 193.898C211.86 193.974 211.208 193.784 210.782 193.507C209.002 192.486 207.086 191.605 205.543 190.219Z" fill="#FF9A79"/>
<path d="M136.864 211.976C137.952 209.429 139.087 205.511 140.095 203.938C148.14 201.294 151.866 194.125 150.826 185.673C149.712 176.639 147.998 167.916 143.735 160.739C142.671 158.95 132.259 158.512 123.059 159.123C113.412 159.764 109.947 160.899 105.32 162.002C100.726 163.351 97.0871 174.012 92.1258 185.184C87.1644 196.356 83.3391 204.223 79.0098 221.799C99.1898 244.881 133.574 233.812 140.524 221.495C139.054 216.151 137.952 214.362 136.864 211.976Z" fill="#0077FF"/>
<mask id="mask14_1679_1155" style="mask-type:luminance" maskUnits="userSpaceOnUse" x="79" y="173" width="44" height="63">
<path d="M79.0098 173.437H122.175V235.243H79.0098V173.437Z" fill="white"/>
</mask>
<g mask="url(#mask14_1679_1155)">
<g opacity="0.100006">
<path d="M118.801 234.253C118.713 234.211 118.621 234.181 118.533 234.138C114.843 232.363 111.416 229.705 109.608 226.033C107.8 222.361 107.931 217.569 110.647 214.506C113.413 211.386 118.04 210.674 121.277 208.044C121.621 207.765 121.961 207.445 122.101 207.025C122.545 205.705 120.907 204.71 119.596 204.241C115.749 202.868 112.031 201.145 108.499 199.097C105.673 197.46 102.876 195.52 101.235 192.698C99.5534 189.807 99.2801 186.267 99.8121 182.965C100.343 179.663 101.619 176.533 102.884 173.438L96.5747 174.868C95.1774 178.061 93.7201 181.593 92.1254 185.183C87.1641 196.356 83.3387 204.223 79.0107 221.799C90.2641 234.672 105.933 236.917 118.801 234.253Z" fill="#222831"/>
</g>
</g>
<path d="M153.558 136.511C156.062 131.894 154.557 125.361 152.311 122.162C149.065 117.534 143.598 115.192 135.073 114.994C128.589 114.842 120.618 117.055 118.845 123.563C112.614 126.072 114.025 134.541 115.319 138.164C118.038 145.771 119.742 151.913 122.057 155.805L153.558 136.511Z" fill="#222831"/>
<path d="M150.64 126.215C152.026 127.428 154.244 130.74 153.558 136.511C153.271 138.25 153.711 140.445 153.53 143.72C152.848 156.1 149.407 158.756 145.975 160.033C143.926 160.795 140.131 161.14 135.842 159.799L133.97 165.829C133.97 165.829 135.144 169.312 132.555 174.019C128.586 173.037 119.616 169.036 118.008 160.903L121.263 149.221C121.263 149.221 118.84 151.143 116.11 148.875C113.758 146.922 112.788 142.25 115.15 139.757C117.511 137.266 120.575 139.046 121.846 141.441C123.116 143.835 126.618 143.379 125.778 139.803C127.403 139.141 129.468 137.639 128.376 131.098C128.142 129.421 128.91 126.599 130.555 125.292C133.308 123.107 138.379 123.931 141.099 126.986C145.226 123.973 147.772 123.7 150.64 126.215Z" fill="#FFBEA7"/>
<path d="M138.054 147.549L143.669 149.878C143.079 151.465 141.342 152.228 139.791 151.585C138.242 150.941 137.463 149.134 138.054 147.549Z" fill="#C76668"/>
<path d="M141.111 151.796C141.182 150.308 140.046 149.036 138.554 148.947C138.324 148.934 138.104 148.956 137.89 148.998C138.014 150.112 138.707 151.134 139.791 151.584C140.227 151.765 140.675 151.824 141.111 151.796Z" fill="#FF9090"/>
<path d="M142.134 136.033L143.28 147.125L148.95 144.822C147.006 140.99 144.914 137.718 142.134 136.033Z" fill="#FF9A79"/>
<path d="M135.842 159.799C132.172 158.496 126.448 155.068 124.671 149.681C124.671 149.681 124.812 154.81 129.215 158.416C132.71 161.28 135.158 162.002 135.158 162.002L135.842 159.799Z" fill="#FF9A79"/>
<path d="M138.209 139.439C138.066 140.401 137.171 141.065 136.209 140.923C135.246 140.781 134.581 139.886 134.723 138.925C134.866 137.963 135.761 137.298 136.723 137.441C137.686 137.582 138.35 138.477 138.209 139.439Z" fill="#222831"/>
<path d="M151.269 139.673C150.999 140.606 150.021 141.143 149.087 140.871C148.152 140.601 147.615 139.625 147.885 138.691C148.157 137.757 149.135 137.22 150.069 137.492C151.003 137.762 151.541 138.739 151.269 139.673Z" fill="#222831"/>
<path d="M150.475 132.76C149.143 132.359 147.737 133.114 147.336 134.446L152.163 135.896C152.564 134.564 151.808 133.16 150.475 132.76Z" fill="#222831"/>
<path d="M134.629 132.738C133.321 133.21 132.644 134.654 133.118 135.962L137.857 134.247C137.382 132.94 135.938 132.263 134.629 132.738Z" fill="#222831"/>
<path d="M149.923 119.519L131.044 118.48C118.015 122.795 121.804 139.435 124.362 141.579C132.118 138.808 132.04 131.226 131.719 126.893C135.36 130.698 141.612 133.704 144.603 134.182C143.303 132.43 142.363 128.22 142.363 128.22C142.363 128.22 143.892 132.343 147.975 135.003C152.494 137.945 155.776 136.327 155.776 136.327C155.776 136.327 157.99 125.034 149.923 119.519Z" fill="#222831"/>
<path d="M105.32 162.001C91.063 164.44 89.2003 168.064 78.759 178.273C75.5283 181.432 69.2616 187.528 64.643 192.415C60.0923 197.23 59.1816 198.26 59.1816 205.868C59.1816 209.653 59.1816 215.727 59.4736 229.779C59.1883 237.711 59.0243 240.252 59.403 242.379C59.783 244.507 60.3403 247.156 60.8203 248.84C61.3003 250.525 63.147 252.379 63.147 252.379C63.147 252.379 64.263 255.518 65.3016 257.07C66.339 258.622 67.8643 258.411 67.8643 258.411C67.8643 258.411 68.4216 259.524 69.9536 261.723C71.4883 263.922 71.7683 263.378 72.1856 263.061C72.603 262.743 73.2816 261.713 72.847 260.616C72.4123 259.52 70.815 257.187 70.4456 256.307C70.0776 255.426 69.803 253.272 69.803 253.272C69.803 253.272 70.2243 254.16 70.6163 255.043C71.0083 255.926 72.2496 257.339 73.0416 258.443C74.2043 260.066 75.2123 261.005 75.835 260.602C76.4563 260.2 76.7083 258.936 76.2203 257.736C75.7323 256.535 73.2803 253.335 73.1216 252.098C72.9643 250.862 72.2776 249.107 72.207 246.017C72.135 242.927 72.4336 241.913 73.183 241.771C73.9336 241.628 75.371 243.605 78.1963 245.524C81.0216 247.445 82.847 245.339 81.6683 244.451C80.4896 243.564 79.131 241.597 77.747 239.223C76.3616 236.848 75.039 236.427 73.4243 235.156C71.811 233.885 71.4816 232.937 71.7683 231.097C73.0443 222.916 73.831 217.498 76.2243 205.94C76.2243 205.94 88.3483 196.572 93.663 192.492C99.091 188.324 102.979 185.51 104.371 181.897C107.286 174.329 106.734 167.41 105.32 162.001Z" fill="#FFBEA7"/>
<path d="M67.8651 258.411C66.9784 256.999 66.0451 254.221 65.5731 252.629C65.1411 251.023 64.8184 249.379 64.7598 247.717C65.0918 249.343 65.4264 250.956 65.8904 252.538C66.3224 254.13 67.2251 256.881 67.8651 258.411Z" fill="#FF9A79"/>
<path d="M63.1475 252.378C62.7101 251.66 62.1181 249.653 61.9061 248.854C61.7328 248.041 61.5795 247.224 61.5861 246.384C61.8515 247.178 62.0195 247.981 62.2261 248.777L63.1475 252.378Z" fill="#FF9A79"/>
<path d="M69.8028 253.272C69.0468 251.839 68.0654 248 68.0654 248C68.0654 248 68.2081 252.301 70.0281 254.693L69.8028 253.272Z" fill="#FF9A79"/>
</g>
<path d="M391.409 301.243V395.374L393.809 393.99V299.859L391.409 301.243Z" fill="#2B454E"/>
<path d="M391.41 301.243V395.374L389.01 393.99V299.859L391.41 301.243Z" fill="#222831"/>
<path d="M252.208 425.828L391.409 345.54L389.009 344.156L249.808 424.442L252.208 425.828Z" fill="#2B454E"/>
<path d="M252.208 425.827L391.409 345.54V348.308L252.208 428.595V425.827Z" fill="#222831"/>
<path d="M249.808 382.915V477.046L252.208 475.662V381.531L249.808 382.915Z" fill="#2B454E"/>
<path d="M249.808 382.915V477.046L247.408 475.662V381.531L249.808 382.915Z" fill="#222831"/>
<path d="M290.607 243.104V337.235L293.007 335.851V241.72L290.607 243.104Z" fill="#2B454E"/>
<path d="M290.608 243.104V337.235L288.208 335.851V241.72L290.608 243.104Z" fill="#222831"/>
<path d="M151.406 367.688L290.607 287.4L288.207 286.016L149.006 366.303L151.406 367.688Z" fill="#2B454E"/>
<path d="M151.406 367.688L290.608 287.401V290.17L151.406 370.456V367.688Z" fill="#222831"/>
<path d="M149.006 324.775V418.906L151.406 417.522V323.391L149.006 324.775Z" fill="#2B454E"/>
<path d="M149.006 324.775V418.906L146.606 417.522V323.391L149.006 324.775Z" fill="#222831"/>
<path d="M521.012 375.994V470.125L523.412 468.742V374.61L521.012 375.994Z" fill="#2B454E"/>
<path d="M521.011 375.994V470.125L518.611 468.742V374.61L521.011 375.994Z" fill="#222831"/>
<path d="M381.81 500.579L521.011 420.291L518.611 418.907L379.41 499.195L381.81 500.579Z" fill="#2B454E"/>
<path d="M381.81 500.579L521.011 420.291V423.059L381.81 503.346V500.579Z" fill="#222831"/>
<path d="M379.41 457.666V551.797L381.81 550.413V456.282L379.41 457.666Z" fill="#2B454E"/>
<path d="M379.41 457.666V551.797L377.01 550.413V456.282L379.41 457.666Z" fill="#222831"/>
<path d="M420.21 317.855V411.986L422.61 410.602V316.471L420.21 317.855Z" fill="#2B454E"/>
<path d="M420.21 317.855V411.986L417.81 410.602V316.471L420.21 317.855Z" fill="#222831"/>
<path d="M281.008 442.439L420.21 362.151L417.81 360.767L278.608 441.054L281.008 442.439Z" fill="#2B454E"/>
<path d="M281.008 442.439L420.209 362.151V364.919L281.008 445.207V442.439Z" fill="#222831"/>
<path d="M278.608 399.526V493.657L281.008 492.273V398.142L278.608 399.526Z" fill="#2B454E"/>
<path d="M278.608 399.526V493.657L276.208 492.273V398.142L278.608 399.526Z" fill="#222831"/>
<path d="M449.01 251.406L446.61 250.022L444.21 251.409V273.558L441.81 274.942V291.55L438.184 293.638V296.368L440.584 297.751L446.61 294.318V277.71L449.01 276.326V251.406Z" fill="#222831"/>
<path d="M444.21 292.933V276.326L446.61 274.942V252.793L449.01 251.406V276.326L446.61 277.71V294.317L440.583 297.752V295.022L444.21 292.933Z" fill="#2B454E"/>
<path d="M446.61 250.022L444.21 251.408L446.61 252.793L449.01 251.406L446.61 250.022Z" fill="#393E46"/>
<path d="M405.811 475.662L583.412 373.225V362.151L405.811 464.587V475.662Z" fill="#E1E1E1"/>
<path d="M405.811 475.662L117.807 309.548L117.806 298.474L405.811 464.587V475.662Z" fill="#E1E1E1"/>
<mask id="mask15_1679_1155" style="mask-type:luminance" maskUnits="userSpaceOnUse" x="0" y="0" width="667" height="666">
<path d="M0 0H666.667V666H0V0Z" fill="white"/>
</mask>
<g mask="url(#mask15_1679_1155)">
<mask id="mask16_1679_1155" style="mask-type:luminance" maskUnits="userSpaceOnUse" x="117" y="298" width="289" height="178">
<path d="M117.806 298.474H405.81V475.661H117.806V298.474Z" fill="white"/>
</mask>
<g mask="url(#mask16_1679_1155)">
<g opacity="0.100006">
<path d="M405.81 475.662L117.806 309.548L117.805 298.474L405.81 464.587V475.662Z" fill="#222831"/>
</g>
</g>
</g>
<path d="M583.412 362.152L405.811 464.588L117.806 298.474L295.408 196.038L583.412 362.152Z" fill="#F0F0F0"/>
<path d="M405.81 459.05L573.813 362.151L295.406 201.576L127.406 298.475L405.81 459.05Z" fill="#0077FF"/>
<mask id="mask17_1679_1155" style="mask-type:luminance" maskUnits="userSpaceOnUse" x="0" y="0" width="667" height="666">
<path d="M0 0H666.667V666H0V0Z" fill="white"/>
</mask>
<g mask="url(#mask17_1679_1155)">
<mask id="mask18_1679_1155" style="mask-type:luminance" maskUnits="userSpaceOnUse" x="127" y="201" width="447" height="259">
<path d="M127.407 201.576H573.812V459.05H127.407V201.576Z" fill="white"/>
</mask>
<g mask="url(#mask18_1679_1155)">
<g opacity="0.149994">
<path d="M405.81 459.05L573.813 362.151L295.406 201.576L127.406 298.475L405.81 459.05Z" fill="white"/>
</g>
</g>
</g>
<path d="M207.833 246.564L495.837 412.676L493.484 414.033L205.481 247.919L207.833 246.564Z" fill="#FAFAFA"/>
<path d="M445.299 256.357V273.557L259.956 380.462V363.27" stroke="#222831" stroke-width="0.289333" stroke-miterlimit="10" stroke-linecap="round" stroke-linejoin="round"/>
<path d="M445.299 273.558L259.956 380.463" stroke="#222831" stroke-width="0.289333" stroke-miterlimit="10" stroke-linecap="round" stroke-linejoin="round"/>
<path d="M445.299 271.648L259.956 378.553" stroke="#222831" stroke-width="0.289333" stroke-miterlimit="10" stroke-linecap="round" stroke-linejoin="round"/>
<path d="M445.299 269.738L259.956 376.643" stroke="#222831" stroke-width="0.289333" stroke-miterlimit="10" stroke-linecap="round" stroke-linejoin="round"/>
<path d="M445.299 267.827L259.956 374.732" stroke="#222831" stroke-width="0.289333" stroke-miterlimit="10" stroke-linecap="round" stroke-linejoin="round"/>
<path d="M445.299 265.917L259.956 372.822" stroke="#222831" stroke-width="0.289333" stroke-miterlimit="10" stroke-linecap="round" stroke-linejoin="round"/>
<path d="M445.299 264.008L259.956 370.913" stroke="#222831" stroke-width="0.289333" stroke-miterlimit="10" stroke-linecap="round" stroke-linejoin="round"/>
<path d="M445.299 262.097L259.956 369.002" stroke="#222831" stroke-width="0.289333" stroke-miterlimit="10" stroke-linecap="round" stroke-linejoin="round"/>
<path d="M445.299 260.187L259.956 367.092" stroke="#222831" stroke-width="0.289333" stroke-miterlimit="10" stroke-linecap="round" stroke-linejoin="round"/>
<path d="M445.299 258.278L259.956 365.183" stroke="#222831" stroke-width="0.289333" stroke-miterlimit="10" stroke-linecap="round" stroke-linejoin="round"/>
<path d="M445.299 256.367L259.956 363.272" stroke="#222831" stroke-width="0.289333" stroke-miterlimit="10" stroke-linecap="round" stroke-linejoin="round"/>
<path d="M259.957 363.273V380.463" stroke="#222831" stroke-width="0.289333" stroke-miterlimit="10" stroke-linecap="round" stroke-linejoin="round"/>
<path d="M261.597 362.326V379.517" stroke="#222831" stroke-width="0.289333" stroke-miterlimit="10" stroke-linecap="round" stroke-linejoin="round"/>
<path d="M263.237 361.38V378.571" stroke="#222831" stroke-width="0.289333" stroke-miterlimit="10" stroke-linecap="round" stroke-linejoin="round"/>
<path d="M264.877 360.434V377.625" stroke="#222831" stroke-width="0.289333" stroke-miterlimit="10" stroke-linecap="round" stroke-linejoin="round"/>
<path d="M266.518 359.488V376.679" stroke="#222831" stroke-width="0.289333" stroke-miterlimit="10" stroke-linecap="round" stroke-linejoin="round"/>
<path d="M268.157 358.542V375.732" stroke="#222831" stroke-width="0.289333" stroke-miterlimit="10" stroke-linecap="round" stroke-linejoin="round"/>
<path d="M269.798 357.596V374.787" stroke="#222831" stroke-width="0.289333" stroke-miterlimit="10" stroke-linecap="round" stroke-linejoin="round"/>
<path d="M271.438 356.65V373.84" stroke="#222831" stroke-width="0.289333" stroke-miterlimit="10" stroke-linecap="round" stroke-linejoin="round"/>
<path d="M273.078 355.703V372.894" stroke="#222831" stroke-width="0.289333" stroke-miterlimit="10" stroke-linecap="round" stroke-linejoin="round"/>
<path d="M274.719 354.757V371.948" stroke="#222831" stroke-width="0.289333" stroke-miterlimit="10" stroke-linecap="round" stroke-linejoin="round"/>
<path d="M276.358 353.811V371.002" stroke="#222831" stroke-width="0.289333" stroke-miterlimit="10" stroke-linecap="round" stroke-linejoin="round"/>
<path d="M277.999 352.865V370.056" stroke="#222831" stroke-width="0.289333" stroke-miterlimit="10" stroke-linecap="round" stroke-linejoin="round"/>
<path d="M279.639 351.919V369.109" stroke="#222831" stroke-width="0.289333" stroke-miterlimit="10" stroke-linecap="round" stroke-linejoin="round"/>
<path d="M281.279 350.973V368.164" stroke="#222831" stroke-width="0.289333" stroke-miterlimit="10" stroke-linecap="round" stroke-linejoin="round"/>
<path d="M282.919 350.026V367.217" stroke="#222831" stroke-width="0.289333" stroke-miterlimit="10" stroke-linecap="round" stroke-linejoin="round"/>
<path d="M284.56 349.08V366.271" stroke="#222831" stroke-width="0.289333" stroke-miterlimit="10" stroke-linecap="round" stroke-linejoin="round"/>
<path d="M286.199 348.134V365.325" stroke="#222831" stroke-width="0.289333" stroke-miterlimit="10" stroke-linecap="round" stroke-linejoin="round"/>
<path d="M287.84 347.188V364.379" stroke="#222831" stroke-width="0.289333" stroke-miterlimit="10" stroke-linecap="round" stroke-linejoin="round"/>
<path d="M289.48 346.242V363.433" stroke="#222831" stroke-width="0.289333" stroke-miterlimit="10" stroke-linecap="round" stroke-linejoin="round"/>
<path d="M291.12 345.296V362.486" stroke="#222831" stroke-width="0.289333" stroke-miterlimit="10" stroke-linecap="round" stroke-linejoin="round"/>
<path d="M292.761 344.349V361.54" stroke="#222831" stroke-width="0.289333" stroke-miterlimit="10" stroke-linecap="round" stroke-linejoin="round"/>
<path d="M294.4 343.403V360.594" stroke="#222831" stroke-width="0.289333" stroke-miterlimit="10" stroke-linecap="round" stroke-linejoin="round"/>
<path d="M296.041 342.457V359.646" stroke="#222831" stroke-width="0.289333" stroke-miterlimit="10" stroke-linecap="round" stroke-linejoin="round"/>
<path d="M297.681 341.511V358.702" stroke="#222831" stroke-width="0.289333" stroke-miterlimit="10" stroke-linecap="round" stroke-linejoin="round"/>
<path d="M299.321 340.565V357.756" stroke="#222831" stroke-width="0.289333" stroke-miterlimit="10" stroke-linecap="round" stroke-linejoin="round"/>
<path d="M300.961 339.619V356.81" stroke="#222831" stroke-width="0.289333" stroke-miterlimit="10" stroke-linecap="round" stroke-linejoin="round"/>
<path d="M302.602 338.672V355.863" stroke="#222831" stroke-width="0.289333" stroke-miterlimit="10" stroke-linecap="round" stroke-linejoin="round"/>
<path d="M304.242 337.726V354.917" stroke="#222831" stroke-width="0.289333" stroke-miterlimit="10" stroke-linecap="round" stroke-linejoin="round"/>
<path d="M305.882 336.78V353.971" stroke="#222831" stroke-width="0.289333" stroke-miterlimit="10" stroke-linecap="round" stroke-linejoin="round"/>
<path d="M307.522 335.834V353.025" stroke="#222831" stroke-width="0.289333" stroke-miterlimit="10" stroke-linecap="round" stroke-linejoin="round"/>
<path d="M309.162 334.888V352.079" stroke="#222831" stroke-width="0.289333" stroke-miterlimit="10" stroke-linecap="round" stroke-linejoin="round"/>
<path d="M310.803 333.942V351.132" stroke="#222831" stroke-width="0.289333" stroke-miterlimit="10" stroke-linecap="round" stroke-linejoin="round"/>
<path d="M312.442 332.996V350.187" stroke="#222831" stroke-width="0.289333" stroke-miterlimit="10" stroke-linecap="round" stroke-linejoin="round"/>
<path d="M314.083 332.049V349.24" stroke="#222831" stroke-width="0.289333" stroke-miterlimit="10" stroke-linecap="round" stroke-linejoin="round"/>
<path d="M315.724 331.103V348.294" stroke="#222831" stroke-width="0.289333" stroke-miterlimit="10" stroke-linecap="round" stroke-linejoin="round"/>
<path d="M317.363 330.157V347.348" stroke="#222831" stroke-width="0.289333" stroke-miterlimit="10" stroke-linecap="round" stroke-linejoin="round"/>
<path d="M319.004 329.211V346.402" stroke="#222831" stroke-width="0.289333" stroke-miterlimit="10" stroke-linecap="round" stroke-linejoin="round"/>
<path d="M320.644 328.265V345.456" stroke="#222831" stroke-width="0.289333" stroke-miterlimit="10" stroke-linecap="round" stroke-linejoin="round"/>
<path d="M322.284 327.319V344.51" stroke="#222831" stroke-width="0.289333" stroke-miterlimit="10" stroke-linecap="round" stroke-linejoin="round"/>
<path d="M323.924 326.373V343.562" stroke="#222831" stroke-width="0.289333" stroke-miterlimit="10" stroke-linecap="round" stroke-linejoin="round"/>
<path d="M325.564 325.426V342.617" stroke="#222831" stroke-width="0.289333" stroke-miterlimit="10" stroke-linecap="round" stroke-linejoin="round"/>
<path d="M327.204 324.48V341.671" stroke="#222831" stroke-width="0.289333" stroke-miterlimit="10" stroke-linecap="round" stroke-linejoin="round"/>
<path d="M328.845 323.534V340.725" stroke="#222831" stroke-width="0.289333" stroke-miterlimit="10" stroke-linecap="round" stroke-linejoin="round"/>
<path d="M330.485 322.588V339.779" stroke="#222831" stroke-width="0.289333" stroke-miterlimit="10" stroke-linecap="round" stroke-linejoin="round"/>
<path d="M332.125 321.642V338.833" stroke="#222831" stroke-width="0.289333" stroke-miterlimit="10" stroke-linecap="round" stroke-linejoin="round"/>
<path d="M333.766 320.695V337.886" stroke="#222831" stroke-width="0.289333" stroke-miterlimit="10" stroke-linecap="round" stroke-linejoin="round"/>
<path d="M335.405 319.749V336.94" stroke="#222831" stroke-width="0.289333" stroke-miterlimit="10" stroke-linecap="round" stroke-linejoin="round"/>
<path d="M337.046 318.803V335.994" stroke="#222831" stroke-width="0.289333" stroke-miterlimit="10" stroke-linecap="round" stroke-linejoin="round"/>
<path d="M338.686 317.857V335.048" stroke="#222831" stroke-width="0.289333" stroke-miterlimit="10" stroke-linecap="round" stroke-linejoin="round"/>
<path d="M340.326 316.911V334.102" stroke="#222831" stroke-width="0.289333" stroke-miterlimit="10" stroke-linecap="round" stroke-linejoin="round"/>
<path d="M341.967 315.965V333.156" stroke="#222831" stroke-width="0.289333" stroke-miterlimit="10" stroke-linecap="round" stroke-linejoin="round"/>
<path d="M343.606 315.019V332.209" stroke="#222831" stroke-width="0.289333" stroke-miterlimit="10" stroke-linecap="round" stroke-linejoin="round"/>
<path d="M345.247 314.073V331.262" stroke="#222831" stroke-width="0.289333" stroke-miterlimit="10" stroke-linecap="round" stroke-linejoin="round"/>
<path d="M346.887 313.127V330.317" stroke="#222831" stroke-width="0.289333" stroke-miterlimit="10" stroke-linecap="round" stroke-linejoin="round"/>
<path d="M348.527 312.18V329.371" stroke="#222831" stroke-width="0.289333" stroke-miterlimit="10" stroke-linecap="round" stroke-linejoin="round"/>
<path d="M350.167 311.234V328.425" stroke="#222831" stroke-width="0.289333" stroke-miterlimit="10" stroke-linecap="round" stroke-linejoin="round"/>
<path d="M351.808 310.288V327.479" stroke="#222831" stroke-width="0.289333" stroke-miterlimit="10" stroke-linecap="round" stroke-linejoin="round"/>
<path d="M353.447 309.342V326.533" stroke="#222831" stroke-width="0.289333" stroke-miterlimit="10" stroke-linecap="round" stroke-linejoin="round"/>
<path d="M355.088 308.396V325.586" stroke="#222831" stroke-width="0.289333" stroke-miterlimit="10" stroke-linecap="round" stroke-linejoin="round"/>
<path d="M356.728 307.449V324.64" stroke="#222831" stroke-width="0.289333" stroke-miterlimit="10" stroke-linecap="round" stroke-linejoin="round"/>
<path d="M358.368 306.503V323.694" stroke="#222831" stroke-width="0.289333" stroke-miterlimit="10" stroke-linecap="round" stroke-linejoin="round"/>
<path d="M360.009 305.557V322.748" stroke="#222831" stroke-width="0.289333" stroke-miterlimit="10" stroke-linecap="round" stroke-linejoin="round"/>
<path d="M361.648 304.611V321.802" stroke="#222831" stroke-width="0.289333" stroke-miterlimit="10" stroke-linecap="round" stroke-linejoin="round"/>
<path d="M363.289 303.665V320.855" stroke="#222831" stroke-width="0.289333" stroke-miterlimit="10" stroke-linecap="round" stroke-linejoin="round"/>
<path d="M364.929 302.719V319.91" stroke="#222831" stroke-width="0.289333" stroke-miterlimit="10" stroke-linecap="round" stroke-linejoin="round"/>
<path d="M366.569 301.773V318.963" stroke="#222831" stroke-width="0.289333" stroke-miterlimit="10" stroke-linecap="round" stroke-linejoin="round"/>
<path d="M368.209 300.827V318.016" stroke="#222831" stroke-width="0.289333" stroke-miterlimit="10" stroke-linecap="round" stroke-linejoin="round"/>
<path d="M369.85 299.88V317.07" stroke="#222831" stroke-width="0.289333" stroke-miterlimit="10" stroke-linecap="round" stroke-linejoin="round"/>
<path d="M371.49 298.934V316.125" stroke="#222831" stroke-width="0.289333" stroke-miterlimit="10" stroke-linecap="round" stroke-linejoin="round"/>
<path d="M373.13 297.988V315.179" stroke="#222831" stroke-width="0.289333" stroke-miterlimit="10" stroke-linecap="round" stroke-linejoin="round"/>
<path d="M374.771 297.042V314.232" stroke="#222831" stroke-width="0.289333" stroke-miterlimit="10" stroke-linecap="round" stroke-linejoin="round"/>
<path d="M376.41 296.096V313.287" stroke="#222831" stroke-width="0.289333" stroke-miterlimit="10" stroke-linecap="round" stroke-linejoin="round"/>
<path d="M378.051 295.15V312.34" stroke="#222831" stroke-width="0.289333" stroke-miterlimit="10" stroke-linecap="round" stroke-linejoin="round"/>
<path d="M379.69 294.203V311.394" stroke="#222831" stroke-width="0.289333" stroke-miterlimit="10" stroke-linecap="round" stroke-linejoin="round"/>
<path d="M381.331 293.257V310.448" stroke="#222831" stroke-width="0.289333" stroke-miterlimit="10" stroke-linecap="round" stroke-linejoin="round"/>
<path d="M382.971 292.311V309.502" stroke="#222831" stroke-width="0.289333" stroke-miterlimit="10" stroke-linecap="round" stroke-linejoin="round"/>
<path d="M384.611 291.365V308.556" stroke="#222831" stroke-width="0.289333" stroke-miterlimit="10" stroke-linecap="round" stroke-linejoin="round"/>
<path d="M386.252 290.419V307.609" stroke="#222831" stroke-width="0.289333" stroke-miterlimit="10" stroke-linecap="round" stroke-linejoin="round"/>
<path d="M387.892 289.473V306.664" stroke="#222831" stroke-width="0.289333" stroke-miterlimit="10" stroke-linecap="round" stroke-linejoin="round"/>
<path d="M389.532 288.526V305.716" stroke="#222831" stroke-width="0.289333" stroke-miterlimit="10" stroke-linecap="round" stroke-linejoin="round"/>
<path d="M391.172 287.58V304.771" stroke="#222831" stroke-width="0.289333" stroke-miterlimit="10" stroke-linecap="round" stroke-linejoin="round"/>
<path d="M392.812 286.634V303.825" stroke="#222831" stroke-width="0.289333" stroke-miterlimit="10" stroke-linecap="round" stroke-linejoin="round"/>
<path d="M394.453 285.688V302.879" stroke="#222831" stroke-width="0.289333" stroke-miterlimit="10" stroke-linecap="round" stroke-linejoin="round"/>
<path d="M396.093 284.742V301.933" stroke="#222831" stroke-width="0.289333" stroke-miterlimit="10" stroke-linecap="round" stroke-linejoin="round"/>
<path d="M397.733 283.796V300.986" stroke="#222831" stroke-width="0.289333" stroke-miterlimit="10" stroke-linecap="round" stroke-linejoin="round"/>
<path d="M399.373 282.849V300.04" stroke="#222831" stroke-width="0.289333" stroke-miterlimit="10" stroke-linecap="round" stroke-linejoin="round"/>
<path d="M401.014 281.903V299.094" stroke="#222831" stroke-width="0.289333" stroke-miterlimit="10" stroke-linecap="round" stroke-linejoin="round"/>
<path d="M402.653 280.957V298.148" stroke="#222831" stroke-width="0.289333" stroke-miterlimit="10" stroke-linecap="round" stroke-linejoin="round"/>
<path d="M404.294 280.011V297.202" stroke="#222831" stroke-width="0.289333" stroke-miterlimit="10" stroke-linecap="round" stroke-linejoin="round"/>
<path d="M405.934 279.065V296.256" stroke="#222831" stroke-width="0.289333" stroke-miterlimit="10" stroke-linecap="round" stroke-linejoin="round"/>
<path d="M407.574 278.119V295.31" stroke="#222831" stroke-width="0.289333" stroke-miterlimit="10" stroke-linecap="round" stroke-linejoin="round"/>
<path d="M409.214 277.172V294.363" stroke="#222831" stroke-width="0.289333" stroke-miterlimit="10" stroke-linecap="round" stroke-linejoin="round"/>
<path d="M410.854 276.226V293.417" stroke="#222831" stroke-width="0.289333" stroke-miterlimit="10" stroke-linecap="round" stroke-linejoin="round"/>
<path d="M412.495 275.28V292.47" stroke="#222831" stroke-width="0.289333" stroke-miterlimit="10" stroke-linecap="round" stroke-linejoin="round"/>
<path d="M414.135 274.334V291.525" stroke="#222831" stroke-width="0.289333" stroke-miterlimit="10" stroke-linecap="round" stroke-linejoin="round"/>
<path d="M415.775 273.388V290.579" stroke="#222831" stroke-width="0.289333" stroke-miterlimit="10" stroke-linecap="round" stroke-linejoin="round"/>
<path d="M417.415 272.442V289.631" stroke="#222831" stroke-width="0.289333" stroke-miterlimit="10" stroke-linecap="round" stroke-linejoin="round"/>
<path d="M419.056 271.496V288.687" stroke="#222831" stroke-width="0.289333" stroke-miterlimit="10" stroke-linecap="round" stroke-linejoin="round"/>
<path d="M420.695 270.549V287.74" stroke="#222831" stroke-width="0.289333" stroke-miterlimit="10" stroke-linecap="round" stroke-linejoin="round"/>
<path d="M422.336 269.604V286.794" stroke="#222831" stroke-width="0.289333" stroke-miterlimit="10" stroke-linecap="round" stroke-linejoin="round"/>
<path d="M423.977 268.657V285.848" stroke="#222831" stroke-width="0.289333" stroke-miterlimit="10" stroke-linecap="round" stroke-linejoin="round"/>
<path d="M425.616 267.711V284.902" stroke="#222831" stroke-width="0.289333" stroke-miterlimit="10" stroke-linecap="round" stroke-linejoin="round"/>
<path d="M427.257 266.765V283.956" stroke="#222831" stroke-width="0.289333" stroke-miterlimit="10" stroke-linecap="round" stroke-linejoin="round"/>
<path d="M428.896 265.818V283.009" stroke="#222831" stroke-width="0.289333" stroke-miterlimit="10" stroke-linecap="round" stroke-linejoin="round"/>
<path d="M430.537 264.873V282.063" stroke="#222831" stroke-width="0.289333" stroke-miterlimit="10" stroke-linecap="round" stroke-linejoin="round"/>
<path d="M432.177 263.926V281.117" stroke="#222831" stroke-width="0.289333" stroke-miterlimit="10" stroke-linecap="round" stroke-linejoin="round"/>
<path d="M433.817 262.98V280.17" stroke="#222831" stroke-width="0.289333" stroke-miterlimit="10" stroke-linecap="round" stroke-linejoin="round"/>
<path d="M435.457 262.034V279.225" stroke="#222831" stroke-width="0.289333" stroke-miterlimit="10" stroke-linecap="round" stroke-linejoin="round"/>
<path d="M437.098 261.088V278.279" stroke="#222831" stroke-width="0.289333" stroke-miterlimit="10" stroke-linecap="round" stroke-linejoin="round"/>
<path d="M438.738 260.142V277.333" stroke="#222831" stroke-width="0.289333" stroke-miterlimit="10" stroke-linecap="round" stroke-linejoin="round"/>
<path d="M440.378 259.195V276.386" stroke="#222831" stroke-width="0.289333" stroke-miterlimit="10" stroke-linecap="round" stroke-linejoin="round"/>
<path d="M442.019 258.25V275.44" stroke="#222831" stroke-width="0.289333" stroke-miterlimit="10" stroke-linecap="round" stroke-linejoin="round"/>
<path d="M443.658 257.303V274.494" stroke="#222831" stroke-width="0.289333" stroke-miterlimit="10" stroke-linecap="round" stroke-linejoin="round"/>
<path d="M445.299 256.357V273.548" stroke="#222831" stroke-width="0.289333" stroke-miterlimit="10" stroke-linecap="round" stroke-linejoin="round"/>
<path d="M260.592 360.084V362.898L445.298 256.357V253.541L260.592 360.084Z" fill="#FAFAFA"/>
<path d="M268.988 396.747L266.608 395.374L264.228 393.999L262.981 394.72V380.862L260.603 379.487L260.581 379.499V360.096L258.203 358.723L255.803 360.104V385.024L258.181 386.398L258.201 386.387L258.203 400.246L260.581 401.621L268.988 396.747Z" fill="#222831"/>
<path d="M262.982 397.468V380.861L260.582 382.246V360.096L258.182 361.478V386.398L260.582 385.014V401.622L268.988 396.748L266.608 395.373L262.982 397.468Z" fill="#2B454E"/>
<path d="M258.182 361.478L260.582 360.096L258.202 358.722L255.802 360.104L258.182 361.478Z" fill="#393E46"/>
<path d="M593.805 386.962C596.184 398.752 579.768 421.221 571.644 433.018C562.291 446.599 552.592 464.115 552.592 464.115C552.592 464.115 554.859 467.917 556.04 476.016C557.288 484.579 555.988 508.436 556.984 522.8C555.904 528.172 545.853 530.896 542.048 524.067C542.048 524.067 532.039 491.061 528.301 478.869C523.112 461.938 520.221 456.233 525.289 445.127C529.905 435.012 551.328 395.876 550.42 386.962H593.805Z" fill="#FFAAA8"/>
<path d="M561.387 537.388C561.387 537.388 561.565 539.513 560.939 540.786C560.315 542.058 555.741 543.813 551.583 543.671C547.426 543.529 540.315 541.712 536.759 542.077C533.202 542.441 529.329 543.951 523.574 543.252C517.819 542.553 512.715 541.009 512.254 538.102C511.794 535.195 537.453 534.915 548.221 535.596C558.99 536.275 561.387 537.388 561.387 537.388Z" fill="#ECECEC"/>
<path d="M556.813 519.966C558.878 520.343 558.233 521.884 559.257 525.53C560.279 529.175 561.842 532.328 561.387 537.388C559.901 540.115 554.521 541.439 548.235 540.71C541.951 539.982 534.791 540.408 529.91 541.653C525.029 542.899 513.345 540.288 512.254 538.102C511.165 535.916 511.873 533.114 513.767 531.717C515.661 530.319 523.401 529.928 529.537 526.83C534.954 524.094 538.366 521.829 539.121 519.73C539.881 517.616 541.435 517.832 542.183 519.548C542.694 520.72 542.143 522.375 542.143 522.375C542.143 522.375 544.582 522.886 545.509 523.461C546.434 524.038 547.238 525.547 548.206 525.807C549.174 526.066 549.525 523.694 551.193 522.775C552.862 521.856 556.883 521.577 556.883 521.577L556.813 519.966Z" fill="#393E46"/>
<path d="M522.786 529.257L522.787 529.253C525.019 528.673 527.376 527.921 529.536 526.829C534.954 524.094 538.367 521.829 539.12 519.729C539.88 517.617 541.435 517.833 542.183 519.548C542.568 520.43 542.351 521.585 542.22 522.103C541.036 524.21 539.49 525.347 536.358 526.874C533.227 528.403 525.344 531.717 523.068 531.767C520.792 531.816 521.866 530.46 522.786 529.257Z" fill="#222831"/>
<path d="M512.056 539.446C513.1 541.416 516.315 543.098 522.2 544.119C528.086 545.14 534.163 543.627 536.203 543.122C538.242 542.617 541.375 543.513 547.275 544.609C553.175 545.705 559.18 543.816 560.303 542.945C561.426 542.074 560.939 540.786 560.939 540.786C560.315 542.059 555.74 543.814 551.583 543.671C547.424 543.53 540.314 541.712 536.758 542.077C533.202 542.442 529.328 543.951 523.574 543.251C519.67 542.777 516.07 541.913 514.011 540.5C513.098 539.053 513.368 537.064 513.483 536.198C513.598 535.333 512.527 534.171 512.252 533.6C511.602 533.716 511.011 537.475 512.056 539.446Z" fill="#222831"/>
<path d="M537.646 521.763C537.559 521.935 537.187 522.175 537.187 522.175C535.99 524.916 536.423 527.59 536.423 527.59C536.423 527.59 535.634 528.362 534.534 528.63C534.534 528.63 533.919 525.822 535.129 523.689C535.129 523.689 536.018 521.854 537.646 521.763Z" fill="#2B454E"/>
<path d="M532.22 525.42C531.626 526.646 531.703 529.348 531.703 529.348C531.703 529.348 530.531 530.293 529.74 530.187C529.898 528.453 529.9 526.841 530.648 525.814C531.396 524.787 532.795 524.485 533.099 524.927L532.22 525.42Z" fill="#2B454E"/>
<path d="M528.096 527.491C527.418 528.671 527.306 531.371 527.306 531.371C527.306 531.371 526.071 532.231 525.291 532.068C525.568 530.349 525.683 528.742 526.5 527.771C527.319 526.801 528.74 526.622 529.011 527.087L528.096 527.491Z" fill="#2B454E"/>
<path d="M548.75 540.76C550.031 539.487 550.673 537.308 551.223 535.601C552.379 532.013 556.243 528.867 560.554 529.747C561.193 531.95 561.665 534.316 561.387 537.389C559.942 540.04 554.811 541.36 548.75 540.76Z" fill="#222831"/>
<path d="M604.979 380.134C609.047 393.255 610.463 400.624 607.272 415.088C605.099 424.937 599.82 450.511 599.82 450.511C599.82 450.511 605.38 456.693 608.896 466.459C611.927 474.883 612.218 479.616 614.111 488.846C617.206 503.929 618.166 507.789 618.166 507.789C618.166 507.789 613.671 511.108 608.856 511.434C604.042 511.761 604.152 508.846 603.156 506.014C601.56 501.476 600.484 500.191 597.331 495.209C588.447 481.171 583.815 472.789 578.811 464.115C574.538 456.707 573.14 453.603 573.195 439.259C573.26 421.839 575.594 396.535 575.594 396.535L604.979 380.134Z" fill="#FFAAA8"/>
<path d="M621.497 518.893C622.021 520.435 620.633 521.729 616.815 522.476C612.996 523.223 608.313 522.369 605.2 520.563C602.085 518.757 601.084 518.632 597.655 518.668C592.157 518.728 589.719 517.673 587.592 516.128C585.467 514.582 584.225 512.337 583.957 509.394C583.772 507.358 583.851 505.226 585.451 505.072C587.052 504.916 621.497 518.893 621.497 518.893Z" fill="#222831"/>
<path d="M621.558 516.88C621.683 518.594 621.709 518.943 620.893 519.591C620.075 520.24 615.999 522.017 611.11 521.396C606.221 520.774 604.021 518.306 601.163 517.881C598.307 517.455 593.702 518.666 588.905 515.831C584.557 513.262 584.605 508.641 584.557 507.651L621.558 516.88Z" fill="#ECECEC"/>
<path d="M616.895 499.986C616.838 499.957 616.776 499.93 616.715 499.906C614.992 499.227 613.196 499.612 611.426 499.941C609.546 500.291 607.558 500.919 606.415 502.476C605.892 503.187 605.592 504.037 605.204 504.832C605.108 505.028 604.972 505.246 604.759 505.265C604.636 505.276 604.52 505.217 604.414 505.157C604.034 504.944 603.674 504.696 603.338 504.418C603.095 504.214 602.86 503.993 602.579 503.85C602.048 503.583 601.615 503.825 601.099 503.976C599.042 504.575 596.475 504.392 594.34 504.394C587.599 504.399 587.452 504.166 586.012 504.727C584.572 505.288 584.212 507.278 584.719 509.121C585.227 510.965 586.046 513.617 591.186 515.481C596.324 517.346 600.039 515.155 606.864 518.462C608.248 519.134 611.508 519.716 613.25 519.521C616.222 519.19 619.771 518.482 621.558 516.88C622.544 512.843 620.39 508.535 618.99 505.184C618.599 504.249 618.252 503.296 617.932 502.336C617.715 501.682 617.586 500.648 617.099 500.134C617.04 500.071 616.97 500.025 616.895 499.986Z" fill="#393E46"/>
<path d="M608.555 516.517C609.668 515.153 609.032 513.267 610.756 510.827C612.477 508.389 617.28 507.053 620.245 508.179C621.341 510.913 622.271 513.965 621.557 516.879C619.772 518.482 616.221 519.19 613.249 519.522C611.508 519.716 608.249 519.133 606.865 518.463C606.205 518.143 605.583 517.888 604.976 517.662L604.964 517.648C604.964 517.648 607.547 517.753 608.555 516.517Z" fill="#222831"/>
<path d="M590.937 504.334C589.827 504.362 588.254 505.046 588.513 505.318C588.773 505.59 590.717 506.603 593.661 506.381C598.89 505.988 601.89 504.471 602.315 503.758C602.315 503.758 601.741 502.464 601.222 501.315C600.921 500.648 599.891 501.434 598.397 502.567C596.903 503.704 593.057 504.56 590.937 504.334Z" fill="#222831"/>
<path d="M597.8 502.943C596.924 503.344 595.855 504.969 595.947 506.207C595.947 506.207 595.379 506.534 594.682 506.444C594.682 506.444 594.43 505.02 595.611 503.78C596.792 502.54 598.036 502.313 598.519 502.476C598.223 502.764 597.8 502.943 597.8 502.943Z" fill="#2B454E"/>
<path d="M594.862 503.971C594.21 504.106 593.046 504.828 592.685 506.456C592.685 506.456 592.134 506.737 591.413 506.411C591.466 505.917 591.81 504.782 593.289 503.997C594.768 503.211 595.612 503.78 595.612 503.78L594.862 503.971Z" fill="#2B454E"/>
<path d="M592.463 504.34C591.916 504.367 590.267 505.245 590.01 506.013C590.01 506.013 589.411 506.062 588.97 505.607C589.296 504.993 590.346 504.355 591.672 504.102C592.999 503.847 593.447 504.211 593.447 504.211L592.463 504.34Z" fill="#2B454E"/>
<path d="M608.6 370.021C611.258 383.769 612.216 390.695 610.583 402.791C608.95 414.887 603.852 438.53 603.852 438.53C603.852 438.53 600.487 444.588 590.312 445.658C581.074 446.629 574.396 444.791 572.299 443.03L572.928 435.042L558.859 453.917C558.859 453.917 531.538 456.019 528.302 436.755C533.962 424.957 538.912 414.629 543.062 404.236C546.876 394.683 549.22 389.238 550.164 382.424L608.6 370.021Z" fill="#0B132B"/>
<path d="M596.418 401.121C595.24 410.757 585.146 420.531 572.928 435.042L572.3 443.03C574.088 444.532 579.214 446.083 586.414 445.907C582.556 445.682 577.408 440.88 577.164 438.032C576.889 434.832 580.497 431.369 586.164 424.011C593.761 414.148 596.418 412.099 596.418 401.121Z" fill="#222831"/>
<path d="M599.82 450.512C599.82 450.512 594.842 454.665 586.442 453.1C589.948 452.957 598.897 450.031 600.86 445.49L599.82 450.512Z" fill="#FF9090"/>
<path d="M538.602 461.47C541.71 460.423 548.859 461.043 552.592 464.116C552.592 464.116 553.114 463.174 554.024 461.572C550.84 459.807 545.89 458.627 538.602 461.47Z" fill="#FF9090"/>
<path d="M507.498 341.218C507.868 341.001 508.193 340.696 508.594 340.541C509.1 340.347 509.667 340.416 510.203 340.327C511.499 340.11 512.438 339.017 513.536 338.295C514.702 337.531 516.096 337.17 517.486 337.065C518.876 336.959 520.272 337.097 521.656 337.259C522.312 337.336 522.978 337.419 523.632 337.328C524.287 337.238 524.942 336.95 525.335 336.419C525.822 335.759 525.81 334.812 525.426 334.086C525.043 333.362 524.34 332.842 523.576 332.539C522.814 332.233 521.988 332.124 521.171 332.05C518.778 331.831 516.355 331.898 513.987 332.307C512.058 332.641 510.155 333.207 508.436 334.145C506.699 335.096 505.59 336.565 504.641 338.269C504.285 338.908 503.933 339.591 503.95 340.323C503.987 341.811 506.606 341.741 507.498 341.218Z" fill="#FF9090"/>
<path d="M545.534 330.403C537.628 330.918 534.615 329.936 530.906 329.133C526.722 328.227 519.952 327.665 517.022 327.95C514.091 328.235 508.102 332.937 506.818 334.219C505.535 335.502 503.624 339.21 502.44 340.764C502.788 341.599 504.784 342.056 506.458 340.547C507.884 339.26 509.044 337.401 511.896 336.12C514.748 334.837 517.636 334.954 520.296 335.419C522.958 335.885 523.556 336.499 521.275 338.351C518.994 340.202 518.431 340.459 516.539 341.642C514.586 342.862 514.026 343.64 513.655 344.562C512.976 346.249 513.69 347.195 516.082 346.364C518.492 345.526 520.374 345.338 523.226 344.423C526.078 343.51 527.518 342.519 529.887 342.404C532.902 342.257 545.151 342.935 545.151 342.935L545.534 330.403Z" fill="#FFAAA8"/>
<path d="M586.899 307.252C591.898 307.59 598.013 308.287 601.466 314.864C604.573 320.778 603.181 336.135 603.181 336.135L586.899 307.252Z" fill="#222831"/>
<path d="M554.771 305.948L555.982 320.07L576.328 316.403L574.535 300.623L554.771 305.948Z" fill="#FFAAA8"/>
<path d="M541.377 282.066C541.377 282.066 536.357 289.289 536.782 289.959C537.208 290.629 540.905 291.202 540.905 291.202L541.377 282.066Z" fill="#FF9090"/>
<path d="M556.018 258.904C547.44 260.147 543.901 264.258 541.505 279.34C540.637 284.802 540.369 290.907 540.717 295.008C541.28 301.623 542.708 303.597 544.381 304.971C545.765 306.106 553.432 307.144 556.99 306.399C561.444 305.468 571.57 302.569 576.741 295.663C582.824 287.538 583.917 277.215 579.696 270.993C569.824 256.443 559.51 258.398 556.018 258.904Z" fill="#FFAAA8"/>
<path d="M544.381 304.971C545.424 305.81 550.449 307.21 554.857 306.958L554.62 304.318C554.62 304.318 553.116 304.867 549.406 305.403C548.106 305.59 545.741 305.471 544.381 304.971Z" fill="#FF9090"/>
<path d="M549.561 274.274C550.527 274.646 551.58 274.796 552.616 274.94C552.128 277.067 552.675 279.393 554.065 281.113C553.625 282.089 553.18 283.083 553.059 284.14C552.928 285.274 554.127 288.845 555.544 286.614C556.203 285.576 556.689 284.485 557.568 283.602C558.584 282.582 559.921 281.841 561.335 281.783C566.681 281.556 566.792 288.709 564.444 291.51C560.603 296.094 557.909 292.626 557.909 292.626C557.909 292.626 555.633 297.98 561.476 303.995C565.792 305.81 573.276 304.465 574.819 302.924C575.631 302.114 576.101 300.297 576.684 299.281C577.343 298.136 578.052 297.019 578.781 295.915C580.211 293.749 581.724 291.633 583.024 289.39C584.336 287.125 585.799 284.483 586.169 281.89C586.607 278.84 586.607 275.401 585.756 272.42C584.715 268.772 582.177 265.621 579.057 263.32C575.936 261.018 572.255 259.512 568.488 258.427C565.876 257.677 563.199 257.118 560.483 256.899C556.308 256.565 552.089 257.038 547.928 256.578C545.311 256.289 542.737 255.631 540.317 254.631C540.033 257.03 540.841 259.53 542.488 261.351C541.335 261.47 540.159 261.593 539.1 262.048C538.04 262.502 537.095 263.349 536.849 264.441C536.523 265.886 537.476 267.32 538.596 268.332C540.8 270.323 543.852 271.418 546.873 271.301C546.984 272.491 547.925 273.491 549.028 274.04C549.203 274.126 549.38 274.205 549.561 274.274Z" fill="#222831"/>
<path d="M544.096 319.341C547.599 317.487 555.406 313.428 555.406 313.428C555.406 313.428 561.752 316.004 569.451 313.704C575.972 311.754 575.368 307.958 575.368 307.958C575.368 307.958 581.867 307.029 587.28 307.252C592.618 309.318 600.52 321.035 602.888 333.91C606.502 353.559 609.959 368.553 611.258 383.769C605.592 398.857 559.546 408.564 547.79 391.159C547.79 391.159 550.402 384.549 549.792 375.107C549.108 364.528 544.228 354.072 541.894 344.832C538.568 331.661 544.096 319.341 544.096 319.341Z" fill="#0077FF"/>
<path d="M459.854 388.356L458.75 385.87L467.534 370.021L468.638 372.506C468.817 373.002 468.922 373.528 468.985 374.072C469.881 374.806 471.29 375.2 473.025 375.137L488.574 374.579C488.685 374.576 488.758 374.626 488.798 374.715C488.954 375.069 489.862 377.11 489.902 377.199C490.294 378.078 487.51 382.923 486.419 382.943L471.185 382.936C468.305 382.933 464.898 384.212 462.577 386.238C461.729 386.981 460.815 387.689 459.854 388.356Z" fill="#222831"/>
<path d="M437.666 394.559C431.528 394.559 427.305 392.377 425.806 389.022C425.614 388.594 424.874 386.903 424.689 386.484C423.714 384.273 423.912 381.56 425.541 378.619C429.66 371.188 441.437 364.865 451.846 364.496L455.373 364.371C461.577 364.15 465.822 366.209 467.332 369.556C467.525 369.986 468.27 371.681 468.456 372.098C469.458 374.355 469.228 377.19 467.493 380.319L467.434 380.425C463.109 388.231 451.329 394.558 441.124 394.559H437.666Z" fill="#111627"/>
<mask id="mask19_1679_1155" style="mask-type:luminance" maskUnits="userSpaceOnUse" x="424" y="364" width="46" height="31">
<path d="M424.099 364.354H469.051V394.56H424.099V364.354Z" fill="white"/>
</mask>
<g mask="url(#mask19_1679_1155)">
<g opacity="0.399994">
<path d="M437.666 394.559C431.528 394.559 427.305 392.377 425.806 389.022C425.614 388.594 424.874 386.903 424.689 386.484C423.714 384.273 423.912 381.56 425.541 378.619C429.66 371.188 441.437 364.865 451.846 364.496L455.373 364.371C461.577 364.15 465.822 366.209 467.332 369.556C467.525 369.986 468.27 371.681 468.456 372.098C469.458 374.355 469.228 377.19 467.493 380.319L467.434 380.425C463.109 388.231 451.329 394.558 441.124 394.559H437.666Z" fill="#586A81"/>
</g>
</g>
<path d="M467.435 380.426L467.494 380.319C471.819 372.515 466.887 366.486 456.478 366.855L452.951 366.981C442.542 367.349 430.764 373.674 426.646 381.105C422.527 388.536 427.462 394.56 437.667 394.56H441.124C451.33 394.558 463.11 388.231 467.435 380.426Z" fill="#222831"/>
<mask id="mask20_1679_1155" style="mask-type:luminance" maskUnits="userSpaceOnUse" x="425" y="366" width="45" height="29">
<path d="M425.192 366.839H469.062V394.56H425.192V366.839Z" fill="white"/>
</mask>
<g mask="url(#mask20_1679_1155)">
<g opacity="0.149994">
<path d="M467.436 380.425L467.495 380.319C471.82 372.514 466.888 366.486 456.479 366.855L452.952 366.98C442.543 367.349 430.765 373.673 426.647 381.105C422.528 388.536 427.463 394.559 437.668 394.559H441.125C451.331 394.558 463.111 388.231 467.436 380.425Z" fill="#222831"/>
</g>
</g>
<path d="M459.854 388.356C460.815 387.689 461.727 386.981 462.576 386.238C464.898 384.212 468.304 382.935 471.184 382.936L486.419 382.943C487.62 382.921 490.879 377.042 489.678 377.063L474.128 377.623C471.19 377.728 469.144 376.55 469.044 374.567C469.01 373.841 468.871 373.153 468.638 372.506L459.854 388.356Z" fill="#393E46"/>
<path d="M543.56 320.069C536.295 323.098 533.824 324.575 531.699 334.568C529.573 344.56 524.327 367.897 524.327 367.897C524.327 367.897 506.485 371.93 498.267 372.485C492.713 372.859 492.076 370.865 486.545 370.261C481.897 369.754 481.136 370.661 477.633 371.711C473.199 373.041 473.339 375.126 473.339 375.126L480.24 374.878C480.24 374.878 480.263 374.93 480.301 375.029C481.785 378.841 478.883 382.939 474.789 382.937H472.428C472.428 382.937 471.184 382.935 470.08 382.994C470.117 382.993 470.847 384.434 470.931 384.566C471.372 385.264 471.844 385.942 472.295 386.633C473.209 388.037 473.949 389.755 475.935 389.659C476.213 389.646 476.489 389.594 476.767 389.602C477.777 389.631 478.62 390.439 479.623 390.564C480.835 390.714 481.956 389.855 483.151 390.056C484.6 390.3 485.813 390.004 487.181 389.549C488.772 389.019 490.336 386.673 496.751 386.138C503.94 385.538 528.256 386.926 532.821 386.249C540.289 385.141 540.233 382.205 542.528 375.115C544.823 368.026 551.22 343.379 551.22 343.379C551.22 343.379 554.515 327.993 543.56 320.069Z" fill="#FFAAA8"/>
<path d="M544.096 319.341C541.203 320.608 537.684 322.035 535.684 324.163C533.684 326.291 533.284 326.928 531.518 333.961C529.752 340.994 525.616 359.708 525.616 359.708C525.616 359.708 526.832 363.505 533.247 366.259C540.835 369.519 545.383 368.517 545.383 368.517C545.383 368.517 550.547 350.336 552.127 343.787C553.859 336.601 554.37 325.302 544.096 319.341Z" fill="#222831"/>
<path d="M148.482 190.859L140.833 188.811L132.216 220.938L139.865 222.986L148.482 190.859Z" fill="#0077FF"/>
<path d="M150.228 192.489L142.826 189.679L131 220.771L138.402 223.581L150.228 192.489Z" fill="#0077FF"/>
</svg>
