<svg width="118" height="116" viewBox="0 0 118 116" fill="none" xmlns="http://www.w3.org/2000/svg">
<path d="M117.516 57.6738C117.516 89.5261 91.2093 115.348 58.7581 115.348C26.3069 115.348 0 89.5261 0 57.6738C0 25.8214 26.3069 0 58.7581 0C91.2093 0 117.516 25.8214 117.516 57.6738Z" fill="#268BFF"/>
<path d="M25.5645 90.2727C25.5645 92.472 33.2529 94.2545 42.7362 94.2545C52.2197 94.2545 59.9072 92.4718 59.9072 90.2727C59.9072 88.0735 52.2194 86.2905 42.7362 86.2905C33.2529 86.2905 25.5645 88.0735 25.5645 90.2727Z" fill="#A9B3B9"/>
<path d="M41.1775 90.3123L31.2988 81.9967C31.2988 81.9967 42.1062 71.126 45.7249 66.9363C49.3451 62.7467 47.4301 61.0825 47.4301 61.0825L56.7998 62.1016L59.9052 71.2313C59.9052 71.2313 56.3711 70.2264 53.5818 73.9147C50.7925 77.6014 41.1775 90.3123 41.1775 90.3123Z" fill="#E78E42"/>
<path d="M86.0767 61.4124C76.489 72.3848 63.6997 77.0557 52.5143 67.6402C41.7433 58.5724 44.0832 45.1049 53.672 34.1323C63.2593 23.1597 75.7719 18.2554 87.2345 27.9038C99.11 37.9014 95.665 50.439 86.0767 61.4124Z" fill="#E78E42"/>
<path d="M83.9004 59.5793C74.3134 70.5525 61.5239 75.2239 50.3379 65.8079C39.5675 56.7406 41.9077 43.2724 51.4964 32.2997C61.0835 21.3271 73.5963 16.423 85.0582 26.0719C96.9342 36.0691 93.4882 48.6067 83.9004 59.5793Z" fill="#0B132B"/>
<path d="M44.2848 44.6458C41.9067 52.2969 43.3973 59.9655 50.337 65.808C57.5439 71.8747 65.4151 72.0868 72.6689 68.54L44.2848 44.6458Z" fill="#F6A654"/>
<path d="M39.4341 88.9273L29.5566 80.612C29.5566 80.612 40.362 69.74 43.9827 65.5516C47.6012 61.3614 45.6874 59.6973 45.6874 59.6973L55.0569 60.7161L58.1623 69.8463C58.1623 69.8463 54.6287 68.8414 51.8384 72.5297C49.0493 76.2168 39.4341 88.9273 39.4341 88.9273Z" fill="#F6A654"/>
<path d="M57.5604 37.4596C56.9077 41.0166 53.4422 43.3807 49.8185 42.7403C46.1951 42.1001 43.786 38.6978 44.4387 35.1405C45.0915 31.5842 48.5577 29.2196 52.1806 29.86C55.8043 30.5005 58.2131 33.9032 57.5604 37.4596Z" fill="white"/>
<path d="M51.5893 40.0061C47.9656 39.3654 45.5576 35.9634 46.2103 32.4066C46.2652 32.1056 46.3428 31.8127 46.4366 31.5295C45.4273 32.4577 44.7022 33.7014 44.4387 35.1405C43.786 38.6978 46.1951 42.1 49.8185 42.7402C53.135 43.3263 56.3178 41.3947 57.3341 38.3365C55.8487 39.7034 53.7478 40.3874 51.5893 40.0061Z" fill="#D6BFC1"/>
<path d="M55.7979 35.4165C55.0868 36.6788 53.3407 37.0657 51.897 36.2818C50.4551 35.4986 49.862 33.8396 50.5734 32.5783C51.2845 31.3165 53.0306 30.9291 54.4735 31.713C55.9167 32.496 56.5093 34.1543 55.7979 35.4165Z" fill="white"/>
</svg>
